<svg width="171" height="30" viewBox="0 0 171 30" fill="none" xmlns="http://www.w3.org/2000/svg">
<mask id="mask0_1_1697" style="mask-type:luminance" maskUnits="userSpaceOnUse" x="0" y="-1" width="171" height="31">
<path d="M170.918 -0.00390625H0.837891V29.9961H170.918V-0.00390625Z" fill="white"/>
</mask>
<g mask="url(#mask0_1_1697)">
<path d="M27.3363 19.5881C27.851 19.5881 28.0574 20.1463 28.0574 21.357C28.0041 22.182 27.7206 22.9834 27.2331 23.6842C26.5868 24.6249 25.7874 25.4724 24.861 26.1967C23.9029 26.9552 22.8257 27.582 21.6658 28.0588C20.6079 28.5345 19.4445 28.7884 18.263 28.8034C16.7164 28.8034 15.7889 27.5938 15.273 25.1734C14.5519 26.2909 13.5212 27.2209 12.2842 27.8724C10.8147 28.6342 9.12973 28.9909 7.438 28.8967C6.56152 28.917 5.6873 28.7906 4.86071 28.5238C4.02618 28.2142 3.25742 27.7727 2.59297 27.2209C2.0181 26.6842 1.56229 26.052 1.25274 25.3588C0.957934 24.6774 0.817334 23.9499 0.840012 23.2181C0.840012 18.8434 2.48979 15.3988 5.68617 12.8863C6.76334 11.9445 8.06956 11.2438 9.50051 10.8377C10.7013 10.5013 11.9542 10.3438 13.2117 10.3727C14.3194 10.3556 15.4159 10.5784 16.408 11.0242C16.8196 10.2795 17.2324 9.90665 17.7483 9.90665C18.2914 9.89808 18.8277 10.0267 19.2949 10.2795C19.8006 10.4713 20.2575 10.7563 20.634 11.1174C21.3903 11.6734 21.871 12.4759 21.9753 13.3513C21.4594 14.3756 20.8403 15.3988 20.2224 16.4231C19.914 18.0827 19.8096 19.7692 19.9128 21.4492C19.9128 23.5909 20.2224 24.7074 20.8403 24.7074C21.4594 24.7074 23.4176 23.4045 26.2013 20.7045C26.7172 19.8677 27.1299 19.5881 27.3363 19.5881ZM7.12845 21.9152C7.12845 23.8695 7.95391 24.8938 9.60369 24.8938C10.5096 24.8692 11.3918 24.6217 12.1538 24.1792C12.9169 23.7367 13.5314 23.1142 13.9328 22.3802C14.3194 21.7159 14.6641 21.0324 14.9646 20.3327C14.9272 17.8299 15.2039 15.3324 15.7889 12.8863C13.477 13.3074 11.3589 14.3456 9.70687 15.8649C8.86554 16.6759 8.20109 17.6242 7.74754 18.657C7.33368 19.7027 7.12505 20.8052 7.12845 21.9152Z" fill="white"/>
<path d="M46.1892 16.9593C46.1892 16.1204 45.6744 15.6543 44.5416 15.6543C43.8545 15.6543 43.0302 16.3068 42.0687 17.6118C41.1661 18.9039 40.5039 20.3214 40.1116 21.8086V21.9018C40.1411 22.8136 40.2783 23.72 40.5243 24.6061C40.7602 25.2382 40.8985 25.8971 40.9359 26.5636C40.9359 27.4025 39.7 28.2425 37.3302 29.1746C37.0014 29.2893 36.6533 29.3525 36.3007 29.3611C35.9673 29.3546 35.6442 29.2571 35.3732 29.0814C35.109 28.8961 34.9264 28.6314 34.8584 28.3357C34.5636 27.4593 34.4241 26.5464 34.4457 25.6314C34.4457 24.5129 34.4457 23.3932 34.5489 22.3679C34.652 21.3414 34.652 20.4093 34.7552 19.5704C34.8584 18.7314 34.8584 17.9846 34.9616 17.2389C35.0387 16.7139 35.0727 16.1836 35.0648 15.6543C35.0648 14.8143 34.652 14.3482 33.7257 14.3482C32.7982 14.3482 31.7675 15.2814 30.6347 17.1457C29.6744 18.4946 29.0757 20.0268 28.884 21.6221C28.8682 22.6593 29.0065 23.6943 29.2956 24.6993C29.5315 25.3314 29.671 25.9904 29.7072 26.6568C29.7072 27.4957 28.4713 28.3357 26.1027 29.2679C25.7727 29.3825 25.4246 29.4457 25.072 29.4543C24.7398 29.4479 24.4166 29.3504 24.1445 29.1746C23.8814 28.9893 23.6989 28.7246 23.6297 28.4289C23.3406 27.4239 23.2022 26.3889 23.2181 25.3518C23.1331 22.7011 23.3054 20.0493 23.7329 17.4254C24.166 15.0007 25.1479 12.6832 26.6174 10.6186C26.8011 10.3293 27.046 10.0754 27.3386 9.87286C27.6538 9.69286 28.003 9.56643 28.3681 9.5C29.2956 9.5 30.2231 10.1525 30.9443 11.5507C31.1767 11.8646 31.3502 12.2118 31.4591 12.5771C31.9614 11.8561 32.6746 11.2743 33.5193 10.8982C34.3448 10.4986 35.2609 10.2746 36.1975 10.2457C37.4119 10.2329 38.5877 10.6314 39.4937 11.3643C39.9234 11.7018 40.2738 12.1143 40.5243 12.5771C40.7772 13.0389 40.8838 13.5554 40.8328 14.0686V14.5346C41.529 13.6057 42.4905 12.8643 43.6141 12.3907C44.7435 11.9129 45.9726 11.6589 47.2198 11.6439C47.8446 11.6139 48.4716 11.6771 49.0737 11.8304C49.6747 12.0179 50.2337 12.3018 50.7224 12.6704C51.1215 13.0111 51.4367 13.4236 51.6487 13.8821C51.8596 14.3557 51.9651 14.8636 51.9583 15.3746C51.9583 16.3068 51.8551 17.3321 51.7519 18.2643C51.6487 19.1975 51.3403 19.9432 51.134 20.6889C50.9276 21.4357 50.7224 22.0882 50.516 22.6475C50.397 23.1061 50.3278 23.5754 50.3096 24.0457C50.3096 24.3254 50.4128 24.5129 50.6192 24.5129C51.2077 24.4175 51.7485 24.1561 52.1635 23.7661C52.7826 23.3 53.4006 22.7407 54.0185 22.1814L55.7692 20.5957C56.284 20.1296 56.6967 19.85 56.9031 19.85C57.3147 19.85 57.5211 20.3161 57.5211 21.155C57.5211 22.9271 56.4904 24.6993 54.5333 26.4704C52.854 28.0507 50.567 28.985 48.1462 29.0814C46.086 29.0814 45.0564 27.4025 45.0564 24.0457C45.0757 22.8511 45.2481 21.6618 45.5712 20.5025C45.9125 19.3443 46.1189 18.1571 46.1892 16.9593Z" fill="white"/>
<path d="M69.6657 25.4366C68.7359 26.5756 67.4932 27.4745 66.0611 28.0456C64.6528 28.6713 63.1006 28.9906 61.5302 28.9766C58.3372 28.9766 56.0717 28.232 54.4242 26.7406C53.6532 26.0227 53.0568 25.1656 52.6735 24.2259C52.246 23.282 52.0703 22.2609 52.1587 21.2452C52.051 18.3309 53.1951 15.4927 55.3506 13.3263C56.3847 12.2281 57.6898 11.3666 59.1615 10.8116C60.6299 10.2566 62.2048 9.97163 63.7956 9.9727C65.0917 9.96948 66.3786 10.1581 67.6066 10.532C69.2541 11.1834 70.0784 11.7427 70.0784 12.302C70.0784 12.8602 68.9457 12.9534 66.577 12.9534C65.4817 12.9502 64.3977 13.1398 63.384 13.5127C62.3579 13.8727 61.4406 14.447 60.7058 15.1895C59.9053 15.9041 59.2738 16.7602 58.8531 17.7052C58.4914 18.6941 58.3848 19.7463 58.5436 20.7791C58.5413 21.8313 58.9415 22.8513 59.6763 23.6666C60.0867 24.0588 60.5766 24.3748 61.1186 24.5988C61.6776 24.7895 62.2717 24.8838 62.8693 24.8784C64.0564 24.9191 65.2334 24.6609 66.2675 24.1327C65.281 23.5691 64.4941 22.7613 64.002 21.8034C63.4498 20.8595 63.1992 19.7956 63.2809 18.7295C63.2525 17.4834 63.7707 16.277 64.7231 15.3759C65.2096 14.8927 65.8071 14.5113 66.4738 14.2584C67.1587 14.0002 67.8946 13.8738 68.6361 13.8856C69.2677 13.8298 69.9061 13.9102 70.4968 14.1213C71.0876 14.3313 71.6148 14.6656 72.0343 15.0963C72.7283 15.9973 73.0888 17.0731 73.065 18.1702C73.0299 19.5556 72.6784 20.9195 72.0343 22.1763H72.2407C72.8348 22.1741 73.4222 22.0659 73.9698 21.8581C74.5175 21.6502 75.0153 21.347 75.4337 20.9656L76.36 20.1266L76.6696 19.847C76.7716 19.7548 76.8748 19.7548 77.0812 19.7548C77.4928 19.7548 77.6991 20.2198 77.6991 21.0588C77.749 21.7231 77.6436 22.3895 77.3896 23.0152C77.1265 23.6259 76.7025 24.1691 76.1537 24.5988C75.208 25.3306 74.0005 25.7281 72.7555 25.7163C71.718 25.7109 70.6839 25.6177 69.6657 25.4366ZM69.3573 20.9656C69.8017 20.1191 70.0467 19.1998 70.0784 18.2634C70.0784 17.4256 69.7689 16.9595 69.1509 16.9595C69.0103 16.9777 68.8776 17.0302 68.7688 17.1127C68.6599 17.1952 68.5783 17.3034 68.5329 17.4256C68.3663 17.7116 68.2948 18.0352 68.3277 18.3566C68.33 18.8366 68.4343 19.3113 68.6361 19.7548C68.6599 19.9895 68.737 20.2177 68.8606 20.4266C68.9842 20.6345 69.1532 20.8177 69.3573 20.9656Z" fill="white"/>
<path d="M166.548 29.1119C167.406 29.1119 168.244 28.8805 168.958 28.4476C169.672 28.0158 170.227 27.4008 170.556 26.6808C170.884 25.9619 170.969 25.1701 170.802 24.4072C170.635 23.6433 170.221 22.9415 169.616 22.3908C169.008 21.8401 168.236 21.4651 167.395 21.314C166.553 21.1619 165.68 21.2401 164.889 21.538C164.096 21.8358 163.418 22.3405 162.942 22.9876C162.465 23.6348 162.211 24.3965 162.211 25.1744C162.253 26.2073 162.723 27.1865 163.527 27.9173C164.332 28.648 165.41 29.0744 166.548 29.1119Z" fill="#C1E9FB"/>
<path d="M122.456 20.2969C122.97 20.2969 123.177 20.8562 123.177 22.068C123.088 22.9037 122.77 23.7052 122.249 24.3994C121.603 25.3423 120.803 26.1919 119.877 26.9173C118.918 27.6769 117.841 28.3059 116.68 28.7827C115.659 29.2584 114.53 29.5134 113.38 29.5284C112.516 29.5327 111.666 29.3409 110.905 28.9691C110.27 28.6134 109.768 28.0937 109.461 27.4777C108.945 26.6377 108.636 24.9598 108.224 22.4409C108.024 20.7169 107.713 19.0048 107.296 17.3119C106.567 17.2091 105.886 16.9177 105.336 16.473C105.051 16.3284 104.832 16.0969 104.717 15.8205C104.6 15.5516 104.53 15.2687 104.511 14.9805C104.468 14.7169 104.543 14.4491 104.717 14.2348L105.336 13.6755C105.983 13.4087 106.689 13.2812 107.399 13.3027C108.117 13.3123 108.822 13.4719 109.461 13.7687C110.248 13.1998 110.913 12.5034 111.421 11.7169C111.965 10.7023 112.213 9.57837 112.143 8.45229C112.149 7.85015 112.044 7.25229 111.833 6.68122C111.577 6.11551 111.191 5.60658 110.698 5.18872C109.442 4.29301 107.859 3.86015 106.264 3.97586C104.735 3.94158 103.208 4.09908 101.727 4.44301C100.81 4.69694 99.9142 5.00872 99.0456 5.37515C98.3234 5.74801 97.6022 6.02765 96.9831 6.30729C96.4729 6.56015 95.9116 6.71872 95.3334 6.77444C94.8174 6.77444 94.6111 6.58801 94.6111 6.30729C94.7369 5.75336 95.0215 5.23908 95.4365 4.81587C96.0976 4.04551 96.8992 3.38229 97.8086 2.85729C100.342 1.34979 103.277 0.48515 106.306 0.353365C109.336 0.22265 112.349 0.829079 115.03 2.11158C116.228 2.69765 117.226 3.56872 117.918 4.62944C118.632 5.69229 118.958 6.93301 118.845 8.17265C118.943 10.1602 118.247 12.1123 116.887 13.6755C115.628 15.1198 113.95 16.218 112.04 16.8459C112.491 17.7437 112.836 18.6812 113.07 19.6434C113.38 20.6698 113.586 21.5087 113.896 22.3477C114.097 23.0677 114.41 23.7587 114.825 24.3994C114.964 24.6084 115.138 24.7969 115.339 24.9598C115.546 25.1462 115.752 25.1462 116.062 25.2394C116.706 25.1269 117.308 24.8698 117.815 24.4927C118.54 24.0084 119.199 23.4448 119.774 22.8148C120.393 22.2544 121.011 21.6952 121.527 21.1359C121.835 20.4834 122.249 20.2969 122.456 20.2969ZM103.893 6.30729C104.305 6.30729 104.408 6.77444 104.408 7.61337C104.391 8.45551 104.322 9.29658 104.202 10.1312C104.006 11.5562 103.662 12.9619 103.171 14.328C102.501 16.3455 101.983 18.4016 101.624 20.4834V26.1716C101.698 26.7577 101.553 27.348 101.211 27.8505C100.875 28.3434 100.415 28.758 99.8711 29.0623L98.3234 29.7159C97.8029 29.9152 97.2394 30.0105 96.6736 29.9955C95.4365 29.9955 94.9206 28.7827 94.9206 26.2648C95.0533 23.0548 95.7143 19.8802 96.88 16.8459C97.7905 13.8062 99.1432 10.8909 100.902 8.17265C101.229 7.70444 101.649 7.29301 102.14 6.96087C102.368 6.75086 102.641 6.58372 102.942 6.47229C103.243 6.35979 103.566 6.30408 103.893 6.30729Z" fill="#C1E9FB"/>
<path d="M159.322 20.3061C159.837 20.3061 160.044 20.8654 160.044 22.0772C159.955 22.9107 159.635 23.7122 159.116 24.4054C158.471 25.3472 157.67 26.1957 156.745 26.9211C155.786 27.6807 154.71 28.3075 153.55 28.7843C152.382 29.2622 151.119 29.5161 149.838 29.53C149.273 29.5365 148.713 29.4411 148.189 29.2504C147.667 29.0843 147.205 28.795 146.849 28.4115C146.121 27.7032 145.715 26.7711 145.715 25.8036C145.727 24.7311 145.901 23.665 146.23 22.6354C146.642 21.4247 146.952 20.2129 147.364 18.909C148.25 16.5593 148.804 14.1175 149.013 11.6415C148.995 11.1711 148.927 10.7029 148.807 10.2443C148.726 10.0782 148.579 9.94538 148.394 9.87145C148.2 9.79538 147.988 9.76431 147.776 9.77824C146.684 9.90252 145.687 10.4029 144.993 11.1765C143.949 12.279 143.019 13.4629 142.21 14.7165C140.363 17.6865 139.305 21.0036 139.118 24.4054L139.323 25.524C139.409 25.8915 139.443 26.2665 139.426 26.6415C139.436 27.1043 139.293 27.5575 139.015 27.9465C138.796 28.3472 138.479 28.6986 138.087 28.9707C137.263 29.6318 136.198 29.9972 135.097 29.9961C134.792 30.0025 134.498 29.9029 134.273 29.7165C134.044 29.5397 133.868 29.3157 133.757 29.064C133.429 28.3879 133.254 27.6593 133.242 26.9211C133.34 25.7586 133.546 24.6047 133.86 23.4743C134.273 21.984 134.788 20.3993 135.304 18.8157C136.644 14.4368 137.365 11.1765 137.365 9.0336C137.381 8.14967 137.241 7.26895 136.953 6.42467C136.802 6.11502 136.551 5.85574 136.231 5.67895C136.085 5.58359 135.916 5.51717 135.738 5.48502C135.56 5.45288 135.376 5.45502 135.201 5.49252C133.654 5.49252 132.108 6.51788 130.665 8.47431C129.222 10.4307 127.779 13.5057 126.645 17.6982C126.336 18.8157 126.13 19.7479 125.923 20.4925V21.2382C126.356 22.765 126.632 24.324 126.749 25.8968C126.823 26.4957 126.696 27.1011 126.382 27.6325C126.071 28.165 125.586 28.599 124.995 28.8775L123.448 29.53C122.925 29.7207 122.364 29.815 121.799 29.8097C120.356 29.8097 119.635 28.5979 119.635 26.0832C119.635 23.5675 120.356 18.8157 121.799 11.6415C122.314 9.0336 122.624 7.63538 122.624 7.26359C122.624 5.21395 122.006 4.09538 120.872 4.09538C120.474 4.10074 120.084 4.19609 119.738 4.37502C119.411 4.61395 119.068 4.83145 118.707 5.02752C118.339 5.24609 117.994 5.49574 117.677 5.77217C117.336 5.96288 116.942 6.06038 116.543 6.05181C116.13 6.05181 115.924 5.67895 115.924 5.02752C115.921 4.30538 116.134 3.59717 116.543 2.97788C116.919 2.37574 117.449 1.86467 118.088 1.48645C119.554 0.526451 121.331 0.0346652 123.14 0.089308C125.716 0.089308 127.263 1.20681 127.676 3.34967C127.8 4.02788 127.869 4.71252 127.883 5.39931C129.944 1.85931 132.623 -0.00390625 135.922 -0.00390625C139.426 -0.00390625 141.489 1.48645 141.901 4.56145C142.072 5.48395 142.142 6.42038 142.107 7.35574V7.63538C143.962 5.30609 146.126 4.18859 148.704 4.18859C152.313 4.18859 154.065 6.14502 154.065 10.0579C154.067 12.0754 153.755 14.0822 153.137 16.0204C152.519 18.3497 152.107 19.9343 151.9 20.9586C151.654 21.7161 151.516 22.4993 151.489 23.2879C151.489 24.3122 151.9 24.7782 152.622 24.7782C153.344 24.7782 155.199 23.4743 158.085 20.7722C158.469 20.5611 158.885 20.4036 159.322 20.3061Z" fill="#C1E9FB"/>
<path d="M98.4134 15.1167C99.1345 15.1167 99.5473 15.7692 99.5473 16.9821C99.5473 18.3621 99.232 19.7271 98.6186 20.9903C97.9168 22.4946 96.9416 23.881 95.7318 25.0928C94.3768 26.4899 92.7293 27.631 90.8856 28.4496C88.7596 29.4599 86.3762 29.9431 83.977 29.8478C81.3883 29.8531 78.8893 28.9896 76.964 27.4242C75.0058 25.8396 73.974 23.5081 73.974 20.431C73.9411 17.6121 74.4287 14.8071 75.4174 12.1339C76.2372 9.81208 77.4924 7.636 79.1297 5.69993C80.5799 4.10458 82.3249 2.74815 84.2854 1.69065C85.985 0.723147 87.95 0.206719 89.957 0.199219C93.0513 0.199219 94.5979 1.411 94.5979 3.92886C94.6943 5.12672 94.4074 6.3235 93.7725 7.37779C93.1545 8.21779 92.6386 8.68386 92.0195 8.68386C91.6329 8.67529 91.2507 8.61208 90.8856 8.49743C90.5171 8.35815 90.1974 8.13315 89.957 7.84493C89.7177 7.55672 89.3969 7.33065 89.0295 7.19136C88.6893 7.00065 88.2947 6.90422 87.8945 6.91172C87.1733 6.91172 85.214 6.8185 83.5642 9.24315C82.9202 10.066 82.4326 10.9799 82.1208 11.9474C81.1763 14.2124 80.6865 16.6124 80.6763 19.0328C80.7987 19.8931 81.1083 20.7224 81.5856 21.4746C82.063 22.2267 82.7014 22.8856 83.4611 23.4149C84.3693 23.9721 85.4601 24.2356 86.5542 24.1607C87.5316 24.0781 88.4818 23.821 89.3481 23.4053C90.2155 22.9885 90.9831 22.4217 91.6068 21.7371L94.3916 18.9396C95.3191 18.0074 96.1445 17.0753 96.8657 16.2353C97.4848 15.5828 98.0007 15.1167 98.4134 15.1167Z" fill="#C1E9FB"/>
</g>
</svg>
