<svg width="171" height="31" viewBox="0 0 171 31" fill="none" xmlns="http://www.w3.org/2000/svg">
<path d="M115.217 23.083H130.521V19.6917H120.434C121.825 14.1265 130.347 12.9091 130.347 6.73521C130.347 3.43087 128.086 0.996094 123.304 0.996094C120.347 0.996094 117.739 1.86566 115.999 2.73522L117.043 5.86564C118.608 5.08304 120.434 4.38739 122.695 4.38739C124.434 4.38739 126.086 5.16999 126.086 7.16999C126.086 11.6917 116.086 12.0395 115.217 23.083ZM130.956 17.6917H140.782V23.083H144.695V17.6917H147.999V14.3874H144.695V0.996094H141.825L130.956 15.083V17.6917ZM135.391 14.5613L140.956 7.08303C140.956 7.69172 140.782 9.60476 140.782 11.3439V14.4743H138.173C137.391 14.4743 135.912 14.5613 135.391 14.5613Z" fill="#005893"/>
<path d="M4.08694 19.7815V12.912H5.73911C7.21737 12.912 8.43476 13.0859 9.30432 13.6076C10.1739 14.1294 10.6956 14.9989 10.6956 16.3902C10.6956 18.7381 9.30432 19.7815 5.99998 19.7815H4.08694ZM0 23.0859H5.91303C12.4347 23.0859 14.7826 20.2163 14.7826 16.2163C14.7826 13.5207 13.6521 11.6946 11.6521 10.6511C10.0869 9.78156 8.08693 9.52069 5.65216 9.52069H4.08694V4.30332H12.8695L13.913 1.08594H0V23.0859ZM17.4782 23.0859H21.3043L26.2608 15.9555C27.2173 14.6511 27.913 13.3468 28.3477 12.6511H28.4347C28.3477 13.6076 28.2608 14.825 28.2608 16.0424V22.9989H32.1738V7.34679H28.3477L23.3912 14.4772C22.5217 15.7815 21.7391 17.0859 21.3043 17.7815H21.2173C21.3043 16.825 21.3912 15.6076 21.3912 14.3902V7.43374H17.4782V23.0859ZM38.8694 23.0859H42.8694V10.6511H47.5651L48.6085 7.34679H34.0868V10.6511H38.8694V23.0859ZM49.9129 30.9989H53.9129V23.0859C54.6955 23.3467 55.4781 23.4337 56.3477 23.4337C61.3042 23.4337 64.5215 20.0424 64.5215 15.1728C64.5215 10.1294 61.565 6.91201 55.9129 6.91201C53.739 6.91201 51.652 7.34679 49.9129 7.86852V30.9989ZM53.9129 19.6946V10.4772C54.5216 10.3033 55.0433 10.2163 55.739 10.2163C58.6085 10.2163 60.4346 11.7816 60.4346 15.1728C60.4346 18.2163 58.9563 20.1294 55.9998 20.1294C55.2172 20.1294 54.6085 19.9554 53.9129 19.6946ZM66.8694 23.0859H70.6954L75.6519 15.9555C76.6085 14.6511 77.3041 13.3468 77.7389 12.6511H77.8258C77.7389 13.6076 77.6519 14.825 77.6519 16.0424V22.9989H81.565V7.34679H77.7389L72.7824 14.4772C71.9128 15.7815 71.1302 17.0859 70.6954 17.7815H70.6085C70.6954 16.825 70.7824 15.6076 70.7824 14.3902V7.43374H66.8694V23.0859ZM84.6954 23.0859H88.6954V16.5641H91.0432C91.478 16.5641 91.9128 16.9989 92.4345 18.0424L94.4345 23.0859H98.6953L95.8258 17.0859C95.304 16.0424 94.7823 15.4337 93.9997 15.1728V15.0859C95.304 14.3033 95.478 12.0424 96.2606 10.912C96.5214 10.5642 96.8693 10.3903 97.391 10.3903C97.6519 10.3903 97.9997 10.3903 98.2606 10.5642V7.17287C97.8258 6.99896 97.0432 6.91201 96.6084 6.91201C95.2171 6.91201 94.3475 7.43374 93.7388 8.3033C92.4345 10.2163 92.4345 13.5207 90.5215 13.5207H88.6954V7.34679H84.6954V23.0859ZM107.565 23.4337C109.739 23.4337 111.739 22.738 112.956 21.8685L111.826 19.1728C110.695 19.7815 109.652 20.2163 108.174 20.2163C105.478 20.2163 103.739 18.4772 103.739 15.2598C103.739 12.3902 105.478 10.1294 108.434 10.1294C110 10.1294 111.13 10.5642 112.261 11.3468V7.95548C111.391 7.43374 110 6.91201 108 6.91201C103.304 6.91201 99.6519 10.3903 99.6519 15.3468C99.6519 19.8685 102.434 23.4337 107.565 23.4337Z" fill="white"/>
<path d="M160.956 17.6931C165.217 17.6931 168.695 14.2148 168.695 9.95395C168.695 5.69309 165.217 2.21484 160.956 2.21484C156.695 2.21484 153.217 5.69309 153.217 9.95395C153.304 14.2148 156.695 17.6931 160.956 17.6931Z" stroke="#005893" stroke-width="2.73711"/>
<path d="M165.825 9.94836H161.564V5.6875H160.434V11.0788H165.825V9.94836Z" fill="#005893"/>
</svg>
