<svg width="190" height="189" viewBox="0 0 190 189" fill="none" xmlns="http://www.w3.org/2000/svg">
<g filter="url(#filter0_dd_1_1639)">
<g filter="url(#filter1_biii_1_1639)">
<path d="M57.5011 111.631H51.7319C43.7776 111.631 37.3088 118.053 37.3088 125.949V154.587C37.3088 162.483 43.7776 168.905 51.7319 168.905H57.5011C62.2716 168.905 66.155 165.05 66.155 160.314V120.222C66.155 115.486 62.2716 111.631 57.5011 111.631Z" fill="#815C98"/>
</g>
<g filter="url(#filter2_bii_1_1639)">
<path d="M30.9212 123.099H28.6538C23.8744 123.099 20 126.945 20 131.69V148.872C20 153.617 23.8744 157.464 28.6538 157.464H30.9305C31.3546 157.464 31.6921 157.102 31.6474 156.683C31.5742 155.999 31.5385 155.304 31.5385 154.6C31.5385 128.44 31.4761 125.41 31.6383 123.888C31.6834 123.466 31.3492 123.099 30.9212 123.099Z" fill="#815C98"/>
</g>
<g filter="url(#filter3_biii_1_1639)">
<path d="M94.9607 20C53.7305 20.0211 20 54.1691 20 95.1005V97.3203C20 101.052 22.4123 104.236 25.7692 105.419V116.803C25.7692 117.237 26.1561 117.573 26.5888 117.511C27.8213 117.335 28.8846 117.358 30.813 117.365C31.2121 117.366 31.5385 117.045 31.5385 116.649V105.911H34.4231C39.2025 105.911 43.0769 102.065 43.0769 97.3203V94.9556C43.0769 66.4631 66.1506 42.9903 94.8511 42.9097C123.549 42.8295 146.923 65.9848 146.923 94.4566V97.3203C146.923 102.065 150.798 105.911 155.577 105.911H158.462V116.649C158.462 117.045 158.789 117.366 159.188 117.364C161.027 117.357 162.152 117.334 163.413 117.512C163.845 117.573 164.23 117.237 164.23 116.804V105.418C167.587 104.235 170 101.052 170 97.3199V94.4562C170 53.3888 136.333 19.9789 94.9607 20Z" fill="#815C98"/>
</g>
<g filter="url(#filter4_biii_1_1639)">
<path d="M132.5 168.905H138.269C146.223 168.905 152.692 162.483 152.692 154.587V125.949C152.692 118.053 146.223 111.631 138.269 111.631H132.5C127.729 111.631 123.846 115.486 123.846 120.222V160.314C123.846 165.05 127.729 168.905 132.5 168.905Z" fill="#815C98"/>
</g>
<g filter="url(#filter5_bii_1_1639)">
<path d="M161.346 123.099H159.07C158.646 123.099 158.308 123.461 158.353 123.879C158.426 124.563 158.462 125.258 158.462 125.963C158.462 152.122 158.524 155.153 158.362 156.674C158.317 157.097 158.651 157.464 159.079 157.464H161.346C166.126 157.464 170 153.617 170 148.872V131.69C170 126.945 166.126 123.099 161.346 123.099Z" fill="#815C98"/>
</g>
</g>
<defs>
<filter id="filter0_dd_1_1639" x="0" y="0" width="190" height="188.905" filterUnits="userSpaceOnUse" color-interpolation-filters="sRGB">
    <feComposite in2="hardAlpha" operator="out"/>
</filter>
<filter id="filter1_biii_1_1639" x="27.2926" y="101.615" width="48.8787" height="77.3068" filterUnits="userSpaceOnUse" color-interpolation-filters="sRGB">
    <feComposite in2="SourceAlpha" operator="in" result="effect1_backgroundBlur_1_1639"/>
</filter>
<filter id="filter2_bii_1_1639" x="9.98374" y="113.083" width="31.6839" height="54.3971" filterUnits="userSpaceOnUse" color-interpolation-filters="sRGB">
    <feComposite in2="SourceAlpha" operator="in" result="effect1_backgroundBlur_1_1639"/>
</filter>
<filter id="filter3_biii_1_1639" x="9.98374" y="9.98374" width="170.032" height="117.552" filterUnits="userSpaceOnUse" color-interpolation-filters="sRGB">
    <feComposite in2="SourceAlpha" operator="in" result="effect1_backgroundBlur_1_1639"/>
</filter>
<filter id="filter4_biii_1_1639" x="113.83" y="101.615" width="48.8787" height="77.3068" filterUnits="userSpaceOnUse" color-interpolation-filters="sRGB">
    <feComposite in2="SourceAlpha" operator="in" result="effect1_backgroundBlur_1_1639"/>

</filter>
<filter id="filter5_bii_1_1639" x="148.333" y="113.083" width="31.6839" height="54.3971" filterUnits="userSpaceOnUse" color-interpolation-filters="sRGB">
    <feComposite in2="SourceAlpha" operator="in" result="effect1_backgroundBlur_1_1639"/>
</filter>
</defs>
</svg>
