<svg width="150" height="29" viewBox="0 0 150 29" fill="none" xmlns="http://www.w3.org/2000/svg">
<mask id="mask0_1_2486" style="mask-type:luminance" maskUnits="userSpaceOnUse" x="-1" y="0" width="151" height="29">
<path d="M150 0.0131836H-0.000244141V28.0133H150V0.0131836Z" fill="white"/>
</mask>
<g mask="url(#mask0_1_2486)">
<path d="M23.3698 18.2957C23.8238 18.2957 24.0058 18.8167 24.0058 19.9467C23.9588 20.7167 23.7088 21.4647 23.2788 22.1187C22.7088 22.9967 22.0038 23.7877 21.1868 24.4637C20.3418 25.1717 19.3918 25.7567 18.3688 26.2017C17.4358 26.6457 16.4098 26.8827 15.3678 26.8967C14.0038 26.8967 13.1858 25.7677 12.7308 23.5087C12.0948 24.5517 11.1858 25.4197 10.0948 26.0277C8.79884 26.7387 7.31284 27.0717 5.82084 26.9837C5.04784 27.0027 4.27684 26.8847 3.54784 26.6357C2.81184 26.3467 2.13384 25.9347 1.54784 25.4197C1.04084 24.9187 0.638842 24.3287 0.365842 23.6817C0.105842 23.0457 -0.0181581 22.3667 0.00184188 21.6837C0.00184188 17.6007 1.45684 14.3857 4.27584 12.0407C5.22584 11.1617 6.37784 10.5077 7.63984 10.1287C8.69884 9.81466 9.80384 9.66765 10.9128 9.69465C11.8898 9.67865 12.8568 9.88666 13.7318 10.3027C14.0948 9.60765 14.4588 9.25965 14.9138 9.25965C15.3928 9.25165 15.8658 9.37165 16.2778 9.60765C16.7238 9.78666 17.1268 10.0527 17.4588 10.3897C18.1258 10.9087 18.5498 11.6577 18.6418 12.4747C18.1868 13.4307 17.6408 14.3857 17.0958 15.3417C16.8238 16.8907 16.7318 18.4647 16.8228 20.0327C16.8228 22.0317 17.0958 23.0737 17.6408 23.0737C18.1868 23.0737 19.9138 21.8577 22.3688 19.3377C22.8238 18.5567 23.1878 18.2957 23.3698 18.2957ZM5.54784 20.4677C5.54784 22.2917 6.27584 23.2477 7.73084 23.2477C8.52984 23.2247 9.30784 22.9937 9.97984 22.5807C10.6528 22.1677 11.1948 21.5867 11.5488 20.9017C11.8898 20.2817 12.1938 19.6437 12.4588 18.9907C12.4258 16.6547 12.6698 14.3237 13.1858 12.0407C11.1468 12.4337 9.27884 13.4027 7.82184 14.8207C7.07984 15.5777 6.49384 16.4627 6.09384 17.4267C5.72884 18.4027 5.54484 19.4317 5.54784 20.4677Z" fill="#005893"/>
<path d="M40.2774 15.9752C40.2774 15.1922 39.8233 14.7572 38.8243 14.7572C38.2183 14.7572 37.4913 15.3662 36.6433 16.5842C35.8473 17.7902 35.2633 19.1132 34.9173 20.5012V20.5882C34.9433 21.4392 35.0643 22.2852 35.2813 23.1122C35.4893 23.7022 35.6113 24.3172 35.6443 24.9392C35.6443 25.7223 34.5543 26.5063 32.4643 27.3763C32.1743 27.4833 31.8673 27.5423 31.5563 27.5503C31.2623 27.5443 30.9773 27.4533 30.7383 27.2893C30.5053 27.1163 30.3443 26.8693 30.2843 26.5933C30.0243 25.7752 29.9013 24.9232 29.9203 24.0692C29.9203 23.0252 29.9204 21.9802 30.0113 21.0232C30.1023 20.0652 30.1023 19.1952 30.1933 18.4122C30.2843 17.6292 30.2843 16.9322 30.3753 16.2362C30.4433 15.7462 30.4733 15.2512 30.4663 14.7572C30.4663 13.9732 30.1023 13.5382 29.2853 13.5382C28.4673 13.5382 27.5583 14.4092 26.5593 16.1492C25.7123 17.4082 25.1843 18.8382 25.0153 20.3272C25.0013 21.2952 25.1233 22.2612 25.3783 23.1992C25.5863 23.7892 25.7093 24.4042 25.7413 25.0262C25.7413 25.8093 24.6513 26.5933 22.5623 27.4633C22.2713 27.5703 21.9643 27.6293 21.6533 27.6373C21.3603 27.6313 21.0753 27.5403 20.8353 27.3763C20.6033 27.2033 20.4423 26.9563 20.3813 26.6803C20.1263 25.7423 20.0043 24.7762 20.0183 23.8082C19.9433 21.3342 20.0953 18.8592 20.4723 16.4102C20.8543 14.1472 21.7203 11.9842 23.0163 10.0572C23.1783 9.78719 23.3943 9.55019 23.6523 9.36118C23.9303 9.19318 24.2383 9.07518 24.5603 9.01318C25.3783 9.01318 26.1963 9.62219 26.8323 10.9272C27.0373 11.2202 27.1903 11.5442 27.2863 11.8852C27.7293 11.2122 28.3583 10.6692 29.1033 10.3182C29.8313 9.94519 30.6393 9.73619 31.4653 9.70919C32.5363 9.69719 33.5733 10.0692 34.3723 10.7532C34.7513 11.0682 35.0603 11.4532 35.2813 11.8852C35.5043 12.3162 35.5983 12.7982 35.5533 13.2772V13.7122C36.1673 12.8452 37.0154 12.1532 38.0064 11.7112C39.0024 11.2652 40.0863 11.0282 41.1863 11.0142C41.7373 10.9862 42.2903 11.0452 42.8214 11.1882C43.3514 11.3632 43.8443 11.6282 44.2753 11.9722C44.6273 12.2902 44.9053 12.6752 45.0924 13.1032C45.2784 13.5452 45.3713 14.0192 45.3653 14.4962C45.3653 15.3662 45.2743 16.3232 45.1833 17.1932C45.0924 18.0642 44.8204 18.7602 44.6384 19.4562C44.4564 20.1532 44.2753 20.7622 44.0933 21.2842C43.9883 21.7122 43.9274 22.1502 43.9114 22.5892C43.9114 22.8502 44.0023 23.0252 44.1843 23.0252C44.7033 22.9362 45.1803 22.6922 45.5463 22.3282C46.0923 21.8932 46.6374 21.3712 47.1824 20.8492L48.7263 19.3692C49.1803 18.9342 49.5443 18.6732 49.7263 18.6732C50.0893 18.6732 50.2714 19.1082 50.2714 19.8912C50.2714 21.5452 49.3623 23.1992 47.6363 24.8522C46.1553 26.3273 44.1383 27.1993 42.0033 27.2893C40.1863 27.2893 39.2784 25.7222 39.2784 22.5892C39.2954 21.4742 39.4473 20.3642 39.7323 19.2822C40.0333 18.2012 40.2154 17.0932 40.2774 15.9752Z" fill="#005893"/>
<path d="M60.7026 23.7568C59.8826 24.8198 58.7866 25.6588 57.5236 26.1918C56.2816 26.7758 54.9126 27.0738 53.5276 27.0608C50.7116 27.0608 48.7136 26.3658 47.2606 24.9738C46.5806 24.3038 46.0546 23.5038 45.7166 22.6268C45.3396 21.7458 45.1846 20.7928 45.2626 19.8448C45.1676 17.1248 46.1766 14.4758 48.0776 12.4538C48.9896 11.4288 50.1406 10.6248 51.4386 10.1068C52.7336 9.58877 54.1226 9.32277 55.5256 9.32377C56.6686 9.32077 57.8036 9.49677 58.8866 9.84577C60.3396 10.4538 61.0666 10.9758 61.0666 11.4978C61.0666 12.0188 60.0676 12.1058 57.9786 12.1058C57.0126 12.1028 56.0566 12.2798 55.1626 12.6278C54.2576 12.9638 53.4486 13.4998 52.8006 14.1928C52.0946 14.8598 51.5376 15.6588 51.1666 16.5408C50.8476 17.4638 50.7536 18.4458 50.8936 19.4098C50.8916 20.3918 51.2446 21.3438 51.8926 22.1048C52.2546 22.4708 52.6866 22.7658 53.1646 22.9748C53.6576 23.1528 54.1816 23.2408 54.7086 23.2358C55.7556 23.2738 56.7936 23.0328 57.7056 22.5398C56.8356 22.0138 56.1416 21.2598 55.7076 20.3658C55.2206 19.4848 54.9996 18.4918 55.0716 17.4968C55.0466 16.3338 55.5036 15.2078 56.3436 14.3668C56.7726 13.9158 57.2996 13.5598 57.8876 13.3238C58.4916 13.0828 59.1406 12.9648 59.7946 12.9758C60.3516 12.9238 60.9146 12.9988 61.4356 13.1958C61.9566 13.3918 62.4216 13.7038 62.7916 14.1058C63.4036 14.9468 63.7216 15.9508 63.7006 16.9748C63.6696 18.2678 63.3596 19.5408 62.7916 20.7138H62.9736C63.4976 20.7118 64.0156 20.6108 64.4986 20.4168C64.9816 20.2228 65.4206 19.9398 65.7896 19.5838L66.6066 18.8008L66.8796 18.5398C66.9696 18.4538 67.0606 18.4538 67.2426 18.4538C67.6056 18.4538 67.7876 18.8878 67.7876 19.6708C67.8316 20.2908 67.7386 20.9128 67.5146 21.4968C67.2826 22.0668 66.9086 22.5738 66.4246 22.9748C65.5906 23.6578 64.5256 24.0288 63.4276 24.0178C62.5126 24.0128 61.6006 23.9258 60.7026 23.7568ZM60.4306 19.5838C60.8226 18.7938 61.0386 17.9358 61.0666 17.0618C61.0666 16.2798 60.7936 15.8448 60.2486 15.8448C60.1246 15.8618 60.0076 15.9108 59.9116 15.9878C59.8156 16.0648 59.7436 16.1658 59.7036 16.2798C59.5566 16.5468 59.4936 16.8488 59.5226 17.1488C59.5246 17.5968 59.6166 18.0398 59.7946 18.4538C59.8156 18.6728 59.8836 18.8858 59.9926 19.0808C60.1016 19.2748 60.2506 19.4458 60.4306 19.5838Z" fill="#005893"/>
<path d="M146.146 27.19C146.903 27.19 147.642 26.974 148.272 26.57C148.901 26.167 149.391 25.593 149.681 24.921C149.97 24.25 150.045 23.511 149.898 22.799C149.751 22.086 149.386 21.431 148.852 20.917C148.316 20.403 147.635 20.053 146.893 19.912C146.151 19.77 145.381 19.843 144.683 20.121C143.984 20.399 143.386 20.87 142.966 21.474C142.545 22.078 142.321 22.789 142.321 23.515C142.358 24.479 142.773 25.393 143.482 26.075C144.192 26.757 145.143 27.155 146.146 27.19Z" fill="#C1E9FB"/>
<path d="M107.259 18.9599C107.713 18.9599 107.895 19.4819 107.895 20.6129C107.817 21.3929 107.536 22.1409 107.077 22.7889C106.507 23.669 105.802 24.462 104.985 25.139C104.139 25.848 103.189 26.435 102.165 26.88C101.265 27.324 100.269 27.562 99.2549 27.576C98.4929 27.58 97.7429 27.401 97.0719 27.054C96.5119 26.722 96.0689 26.237 95.7989 25.662C95.3439 24.878 95.0709 23.312 94.7079 20.9609C94.5309 19.3519 94.2569 17.7539 93.8889 16.1739C93.2459 16.0779 92.6459 15.8059 92.1609 15.3909C91.9089 15.2559 91.7159 15.0399 91.6149 14.7819C91.5119 14.5309 91.4499 14.2669 91.4329 13.9979C91.3949 13.7519 91.4609 13.5019 91.6149 13.3019L92.1609 12.7799C92.7309 12.5309 93.3539 12.4119 93.9799 12.4319C94.6129 12.4409 95.2349 12.5899 95.7989 12.8669C96.4929 12.3359 97.0789 11.6859 97.5269 10.9519C98.0069 10.0049 98.2259 8.95589 98.1639 7.90489C98.1689 7.34288 98.0769 6.78488 97.8909 6.25188C97.6649 5.72388 97.3239 5.24888 96.8899 4.85887C95.7819 4.02287 94.3859 3.61887 92.9789 3.72687C91.6309 3.69487 90.2839 3.84187 88.9779 4.16287C88.1689 4.39987 87.3789 4.69087 86.6129 5.03287C85.9759 5.38088 85.3399 5.64188 84.7939 5.90288C84.3439 6.13888 83.8489 6.28688 83.3389 6.33888C82.8839 6.33888 82.7019 6.16488 82.7019 5.90288C82.8129 5.38588 83.0639 4.90587 83.4299 4.51087C84.0129 3.79187 84.7199 3.17287 85.5219 2.68286C87.7559 1.27586 90.3449 0.468856 93.0159 0.345855C95.6879 0.223855 98.3459 0.789857 100.71 1.98686C101.767 2.53386 102.647 3.34687 103.257 4.33687C103.887 5.32888 104.174 6.48688 104.075 7.64389C104.161 9.49889 103.547 11.3209 102.348 12.7799C101.238 14.1279 99.7579 15.1529 98.0729 15.7389C98.4709 16.5769 98.7749 17.4519 98.9819 18.3499C99.2549 19.3079 99.4369 20.0909 99.7099 20.8739C99.8869 21.5459 100.163 22.1909 100.529 22.7889C100.652 22.9839 100.805 23.16 100.983 23.312C101.165 23.486 101.347 23.486 101.62 23.573C102.188 23.468 102.719 23.228 103.166 22.8759C103.806 22.4239 104.387 21.8979 104.894 21.3099C105.44 20.7869 105.985 20.2649 106.44 19.7429C106.712 19.1339 107.077 18.9599 107.259 18.9599ZM90.8879 5.90288C91.2509 5.90288 91.3419 6.33888 91.3419 7.12188C91.3269 7.90789 91.2659 8.69289 91.1609 9.47189C90.9879 10.8019 90.6839 12.1139 90.2509 13.3889C89.6599 15.2719 89.2039 17.1909 88.8869 19.1339V24.443C88.9519 24.99 88.8239 25.541 88.5229 26.01C88.2259 26.47 87.8209 26.857 87.3409 27.141L85.9759 27.751C85.5169 27.937 85.0199 28.026 84.5209 28.012C83.4299 28.012 82.9749 26.88 82.9749 24.53C83.0919 21.5339 83.6749 18.5709 84.7029 15.7389C85.5059 12.9019 86.6989 10.1809 88.2499 7.64389C88.5389 7.20688 88.9089 6.82288 89.3419 6.51288C89.5429 6.31688 89.7839 6.16088 90.0489 6.05688C90.3149 5.95188 90.5999 5.89988 90.8879 5.90288Z" fill="#C1E9FB"/>
<path d="M139.774 18.9693C140.228 18.9693 140.41 19.4913 140.41 20.6223C140.332 21.4003 140.05 22.1483 139.592 22.7953C139.023 23.6743 138.317 24.4663 137.501 25.1433C136.655 25.8523 135.706 26.4373 134.683 26.8823C133.653 27.3283 132.539 27.5653 131.409 27.5783C130.911 27.5843 130.417 27.4953 129.955 27.3173C129.495 27.1623 129.087 26.8923 128.773 26.5343C128.131 25.8733 127.773 25.0033 127.773 24.1003C127.784 23.0993 127.937 22.1043 128.227 21.1433C128.591 20.0133 128.864 18.8823 129.227 17.6653C130.009 15.4722 130.497 13.1932 130.682 10.8822C130.666 10.4432 130.606 10.0062 130.5 9.57822C130.429 9.42322 130.299 9.29922 130.136 9.23022C129.965 9.15922 129.778 9.13022 129.591 9.14322C128.628 9.25922 127.748 9.72622 127.136 10.4482C126.216 11.4772 125.395 12.5822 124.682 13.7522C123.053 16.5243 122.12 19.6203 121.955 22.7953L122.136 23.8393C122.212 24.1823 122.242 24.5323 122.227 24.8823C122.235 25.3143 122.109 25.7373 121.864 26.1003C121.671 26.4743 121.391 26.8023 121.046 27.0563C120.319 27.6733 119.38 28.0143 118.409 28.0133C118.14 28.0193 117.88 27.9263 117.682 27.7523C117.48 27.5873 117.325 27.3783 117.227 27.1433C116.938 26.5123 116.783 25.8323 116.773 25.1433C116.859 24.0583 117.041 22.9813 117.318 21.9263C117.682 20.5353 118.136 19.0563 118.591 17.5783C119.773 13.4912 120.409 10.4482 120.409 8.44822C120.423 7.62322 120.3 6.80121 120.046 6.01321C119.912 5.72421 119.691 5.48221 119.409 5.31721C119.28 5.22821 119.131 5.16621 118.974 5.13621C118.817 5.1062 118.655 5.1082 118.5 5.14321C117.136 5.14321 115.773 6.10021 114.5 7.92622C113.227 9.75222 111.955 12.6222 110.955 16.5353C110.682 17.5783 110.5 18.4483 110.318 19.1433V19.8393C110.7 21.2643 110.943 22.7193 111.046 24.1873C111.112 24.7463 111 25.3113 110.723 25.8073C110.448 26.3043 110.021 26.7093 109.499 26.9693L108.135 27.5783C107.674 27.7563 107.179 27.8443 106.681 27.8393C105.408 27.8393 104.772 26.7083 104.772 24.3613C104.772 22.0133 105.408 17.5783 106.681 10.8822C107.135 8.44822 107.408 7.14321 107.408 6.79621C107.408 4.8832 106.863 3.8392 105.863 3.8392C105.512 3.8442 105.168 3.9332 104.863 4.1002C104.575 4.3232 104.272 4.5262 103.954 4.7092C103.629 4.9132 103.325 5.1462 103.045 5.40421C102.745 5.58221 102.397 5.67321 102.045 5.66521C101.681 5.66521 101.499 5.31721 101.499 4.7092C101.497 4.0352 101.685 3.3742 102.045 2.7962C102.377 2.23419 102.844 1.75719 103.408 1.40419C104.701 0.508186 106.268 0.0491837 107.863 0.100184C110.135 0.100184 111.5 1.14319 111.864 3.1432C111.973 3.7762 112.034 4.4152 112.046 5.0562C113.864 1.75219 116.227 0.0131836 119.136 0.0131836C122.227 0.0131836 124.046 1.40419 124.409 4.2742C124.56 5.13521 124.622 6.00921 124.591 6.88221V7.14321C126.227 4.9692 128.136 3.9262 130.409 3.9262C133.592 3.9262 135.137 5.75221 135.137 9.40422C135.139 11.2872 134.864 13.1602 134.319 14.9692C133.774 17.1433 133.41 18.6223 133.228 19.5783C133.011 20.2853 132.889 21.0163 132.865 21.7523C132.865 22.7083 133.228 23.1433 133.865 23.1433C134.501 23.1433 136.137 21.9263 138.683 19.4043C139.021 19.2073 139.388 19.0603 139.774 18.9693Z" fill="#C1E9FB"/>
<path d="M86.0551 14.1237C86.6911 14.1237 87.0551 14.7327 87.0551 15.8647C87.0551 17.1528 86.7771 18.4268 86.2361 19.6058C85.6171 21.0098 84.7571 22.3038 83.6901 23.4348C82.4951 24.7388 81.0421 25.8038 79.4161 26.5678C77.5411 27.5108 75.4391 27.9618 73.3231 27.8728C71.0401 27.8778 68.8361 27.0718 67.1381 25.6108C65.4111 24.1318 64.5011 21.9558 64.5011 19.0838C64.4721 16.4528 64.9021 13.8347 65.7741 11.3397C66.4971 9.17272 67.6041 7.14171 69.0481 5.3347C70.3271 3.8457 71.8661 2.57969 73.5951 1.59269C75.0941 0.689686 76.8271 0.207684 78.5971 0.200684C81.3261 0.200684 82.6901 1.33169 82.6901 3.6817C82.7751 4.7997 82.5221 5.91671 81.9621 6.90071C81.4171 7.68471 80.9621 8.11972 80.4161 8.11972C80.0751 8.11172 79.7381 8.05272 79.4161 7.94572C79.0911 7.81572 78.8091 7.60571 78.5971 7.33671C78.3861 7.06771 78.1031 6.85671 77.7791 6.72671C77.4791 6.54871 77.1311 6.45871 76.7781 6.46571C76.1421 6.46571 74.4141 6.37871 72.9591 8.64172C72.3911 9.40972 71.9611 10.2627 71.6861 11.1657C70.8531 13.2797 70.4211 15.5197 70.4121 17.7788C70.5201 18.5818 70.7931 19.3558 71.2141 20.0578C71.6351 20.7598 72.1981 21.3748 72.8681 21.8688C73.6691 22.3888 74.6311 22.6348 75.5961 22.5648C76.4581 22.4878 77.2961 22.2478 78.0601 21.8598C78.8251 21.4708 79.5021 20.9418 80.0521 20.3028L82.5081 17.6918C83.3261 16.8218 84.0541 15.9517 84.6901 15.1677C85.2361 14.5587 85.6911 14.1237 86.0551 14.1237Z" fill="#C1E9FB"/>
</g>
</svg>
