<svg width="211" height="38" viewBox="0 0 211 38" fill="none" xmlns="http://www.w3.org/2000/svg">
<path d="M143.283 27.4889H162.3V23.2895H149.766C151.495 16.3982 162.084 14.8908 162.084 7.24577C162.084 3.15409 159.275 0.13916 153.332 0.13916C149.658 0.13916 146.417 1.21592 144.256 2.29268L145.552 6.16901C147.497 5.19993 149.766 4.33852 152.576 4.33852C154.737 4.33852 156.79 5.30761 156.79 7.78415C156.79 13.3833 144.364 13.814 143.283 27.4889ZM162.841 20.8129H175.05V27.4889H179.913V20.8129H184.019V16.7213H179.913V0.13916H176.347L162.841 17.5827V20.8129ZM168.351 16.9366L175.266 7.67648C175.266 8.43021 175.05 10.7991 175.05 12.9526V16.8289H171.809C170.836 16.8289 168.999 16.9366 168.351 16.9366Z" fill="#005893"/>
<path d="M5.19292 23.3989V14.8925H7.24589C9.08277 14.8925 10.5955 15.1078 11.676 15.7539C12.7565 16.3999 13.4048 17.4767 13.4048 19.1995C13.4048 22.1068 11.676 23.3989 7.57005 23.3989H5.19292ZM0.222553 27.4906H7.462C15.5658 27.4906 18.4832 23.9372 18.4832 18.9842C18.4832 15.6462 17.0786 13.385 14.5934 12.0929C12.6485 11.0161 10.1633 10.6931 7.13784 10.6931H5.19292V4.23255H16.1061L17.4027 0.248535H0.114502V27.4906H0.222553ZM21.8328 27.4906H26.5871L32.746 18.6611C33.9346 17.046 34.799 15.4308 35.3392 14.5694H35.4473C35.3392 15.7539 35.2312 17.2613 35.2312 18.7688V27.3829H40.0935V8.0012H35.3392L29.1803 16.8306C28.0998 18.4458 27.1273 20.0609 26.5871 20.9223H26.479C26.5871 19.7379 26.6951 18.2304 26.6951 16.723V8.10888H21.8328V27.4906ZM48.4135 27.4906H53.3838V12.0929H59.2186L60.5152 8.0012H42.4706V12.0929H48.4135V27.4906ZM62.244 37.2891H67.1064V27.4906C68.0788 27.8136 69.0513 27.9213 70.1318 27.9213C76.2907 27.9213 80.2886 23.7219 80.2886 17.692C80.2886 11.4468 76.6149 7.46282 69.5915 7.46282C66.8903 7.46282 64.297 8.0012 62.136 8.64726V37.2891H62.244ZM67.1064 23.2912V11.8775C67.8627 11.6622 68.511 11.5545 69.3754 11.5545C72.9411 11.5545 75.2102 13.4927 75.2102 17.692C75.2102 21.4607 73.3733 23.8296 69.6996 23.8296C68.7271 23.8296 67.9708 23.6142 67.1064 23.2912ZM83.206 27.4906H87.9603L94.1192 18.6611C95.3078 17.046 96.1722 15.4308 96.7124 14.5694H96.8205C96.7124 15.7539 96.6044 17.2613 96.6044 18.7688V27.3829H101.467V8.0012H96.7124L90.5535 16.8306C89.473 18.4458 88.5005 20.0609 87.9603 20.9223H87.8522C87.9603 19.7379 88.0683 18.2304 88.0683 16.723V8.10888H83.206V27.4906ZM105.357 27.4906H110.327V19.4149H113.244C113.785 19.4149 114.325 19.9532 114.973 21.2453L117.458 27.4906H122.753L119.187 20.0609C118.539 18.7688 117.89 18.0151 116.918 17.692V17.5844C118.539 16.6153 118.755 13.8157 119.727 12.4159C120.052 11.9852 120.484 11.7699 121.132 11.7699C121.456 11.7699 121.888 11.7699 122.213 11.9852V7.78585C121.672 7.5705 120.7 7.46282 120.16 7.46282C118.431 7.46282 117.35 8.10888 116.594 9.18564C114.973 11.5545 114.973 15.6462 112.596 15.6462H110.327V8.0012H105.357V27.4906ZM133.774 27.9213C136.475 27.9213 138.961 27.0598 140.473 25.9831L139.069 22.6451C137.664 23.3989 136.367 23.9372 134.53 23.9372C131.181 23.9372 129.02 21.7837 129.02 17.7997C129.02 14.2464 131.181 11.4468 134.855 11.4468C136.799 11.4468 138.204 11.9852 139.609 12.9543V8.75494C138.528 8.10888 136.799 7.46282 134.314 7.46282C128.48 7.46282 123.941 11.7699 123.941 17.9074C123.941 23.5065 127.399 27.9213 133.774 27.9213Z" fill="#0BBBEF"/>
<path d="M200.12 20.8152C205.415 20.8152 209.737 16.5082 209.737 11.2321C209.737 5.95596 205.415 1.64893 200.12 1.64893C194.826 1.64893 190.504 5.95596 190.504 11.2321C190.612 16.5082 194.826 20.8152 200.12 20.8152Z" stroke="#005893" stroke-width="1.769"/>
<path d="M206.171 11.2302H200.876V5.9541H199.472V12.63H206.171V11.2302Z" fill="#005893"/>
</svg>
