<svg width="118" height="121" viewBox="0 0 118 121" fill="none" xmlns="http://www.w3.org/2000/svg">
<path d="M115.423 54.3809C114.694 53.2178 114.23 51.9029 114.066 50.533C113.995 50.0232 113.931 49.5108 113.898 48.997C113.839 48.0963 114.042 47.2246 114.238 46.357C114.62 44.6713 114.867 42.9815 114.566 41.2477C114.184 38.793 113.131 36.4967 111.528 34.6238C110.779 33.7615 109.866 33.0969 108.95 32.4384C107.914 31.6944 106.937 30.8961 106.317 29.7326C106.274 29.6508 106.205 29.5836 106.154 29.5054C105.58 28.6152 105.029 27.7138 104.821 26.6458C104.753 26.2932 104.688 25.9397 104.607 25.5898C104.38 24.6022 104.216 23.5916 103.897 22.6352C103.225 20.6192 101.974 18.9846 100.429 17.577C98.9792 16.2333 97.2065 15.3037 95.2908 14.8833C94.7509 14.7649 94.213 14.6382 93.6772 14.5036C92.8783 14.3392 92.115 14.0294 91.4242 13.5887C90.956 13.2635 90.4955 12.9254 90.0158 12.6189C89.2692 12.1195 88.6323 11.4676 88.1455 10.7047C87.7717 10.1508 87.406 9.59132 87.0355 9.03453C86.2863 7.88446 85.328 6.89111 84.2121 6.10848C82.0651 4.62386 79.7113 3.7529 77.1007 3.75506C76.2434 3.79658 75.3894 3.89522 74.5449 4.05098C73.8915 4.14002 73.2434 4.26698 72.59 4.36298C71.7224 4.48778 70.8799 4.27634 70.0346 4.13066C68.8142 3.9593 67.6488 3.50307 66.6297 2.79723C66.2559 2.52436 65.8673 2.26924 65.4726 2.02924C64.9332 1.70069 64.3972 1.35989 63.8322 1.08317C62.265 0.34734 60.5542 -0.0174556 58.829 0.016864C56.6387 0.0132641 54.5661 0.490379 52.6876 1.68653C52.2062 1.993 51.7368 2.31916 51.2535 2.62252C50.7824 2.91723 50.3038 3.19635 49.8257 3.47739C49.2603 3.80714 48.594 3.91058 47.9578 3.76706C47.2058 3.61731 46.4505 3.47907 45.7067 3.29259C43.9509 2.81091 42.1068 2.76555 40.3302 3.16035C37.8384 3.74954 35.613 4.84297 33.8701 6.80111C33.3458 7.39031 32.8981 8.0491 32.4085 8.67141C32.0151 9.17085 31.6141 9.66404 31.2115 10.156C30.9082 10.5367 30.4758 10.788 29.9998 10.8607C29.2282 10.9859 28.4597 11.1487 27.683 11.2221C25.3895 11.4143 23.2001 12.2848 21.3849 13.7262C19.2742 15.3978 17.7607 17.4812 17.0468 20.133C16.9091 20.6451 16.7517 21.152 16.5888 21.6567C15.9905 23.6206 14.6662 25.2728 12.897 26.262C12.2413 26.6367 11.5839 27.0087 10.9369 27.3987C10.1489 27.8573 9.43197 28.4328 8.81019 29.1062C6.10452 32.1252 4.84778 35.625 5.40455 39.7381C5.53197 40.6804 5.64008 41.6411 5.43659 42.5871C5.27996 43.3179 5.04915 44.0317 4.8678 44.7574C4.65466 45.5758 4.28395 46.3426 3.77687 47.0134C3.29876 47.6643 2.80534 48.3034 2.32394 48.9519C1.53188 49.9937 0.950379 51.1855 0.613113 52.458C0.407738 53.2262 0.257474 54.0086 0.163737 54.7992C-0.0819116 57.0976 0.180226 59.3258 1.22194 61.4154C1.55543 62.0843 1.90966 62.7424 2.25305 63.406C2.57571 64.03 2.91698 64.6633 2.99494 65.3648C3.09433 66.2617 3.4323 67.1168 3.38496 68.0396C3.36471 68.4399 3.47917 68.8455 3.49848 69.2506C3.5437 70.1688 3.31454 71.0492 3.09998 71.929C2.79239 73.1887 2.47138 74.4456 2.45277 75.7649C2.53143 76.4625 2.56888 77.1684 2.69653 77.8567C3.08608 80.1664 4.09317 82.3226 5.60663 84.087C6.34476 84.9352 7.23667 85.6038 8.11658 86.2842C9.05914 86.9857 9.86061 87.8658 10.4767 88.8762C11.1192 89.9252 11.5394 91.0998 11.7102 92.3242C11.8687 93.516 11.9815 94.7271 12.4123 95.8551C13.9217 99.8083 16.5836 102.531 20.6404 103.731C21.4648 103.975 22.2971 104.195 23.1096 104.475C24.23 104.848 25.1867 105.612 25.8111 106.63C26.1879 107.238 26.5586 107.852 26.8928 108.484C27.9665 110.542 29.6161 112.23 31.6315 113.332C33.3239 114.274 35.1104 114.914 37.0584 114.925C37.9606 114.931 38.8643 114.826 39.7669 114.757C40.6225 114.691 41.4777 114.547 42.334 114.717C42.7848 114.806 43.2314 114.92 43.6765 115.035C44.7971 115.325 45.8855 115.689 46.8104 116.438C47.2308 116.778 47.6738 117.089 48.094 117.43C49.7916 118.82 51.8467 119.683 54.0126 119.915C56.4302 120.191 58.7598 119.922 60.9369 118.738C61.5999 118.378 62.2558 118.001 62.9174 117.639C63.542 117.269 64.2243 117.01 64.9349 116.875C65.7079 116.756 66.4825 116.65 67.259 116.557C67.5322 116.516 67.8099 116.515 68.0833 116.555C68.987 116.723 69.8947 116.884 70.7829 117.119C72.5144 117.577 74.2526 117.755 76.0206 117.401C79.2145 116.761 81.8917 115.258 83.8296 112.527C83.9193 112.4 84.0196 112.281 84.1122 112.156C84.859 111.083 85.8091 110.174 86.9067 109.481C88.1472 108.721 89.41 108.119 90.862 107.938C91.7452 107.83 92.6206 107.666 93.4836 107.446C96.8864 106.57 100.614 103.241 101.686 99.3698C101.807 98.9337 101.934 98.4994 102.043 98.0602C102.37 96.7342 102.814 95.4819 103.631 94.3529C104.461 93.205 105.338 92.1483 106.569 91.4372C106.943 91.2212 107.304 90.9829 107.667 90.7489C108.417 90.2895 109.115 89.7459 109.747 89.1279C111.222 87.6087 112.306 85.7418 112.903 83.6934C113.347 82.3394 113.506 80.9051 113.371 79.4841C113.269 78.5839 113.145 77.6861 113.041 76.7863C112.923 75.996 112.942 75.1908 113.095 74.407C113.23 73.8144 113.378 73.2247 113.504 72.631C113.637 71.9866 113.884 71.3727 114.234 70.8192C114.618 70.2159 115.015 69.6217 115.426 69.0363C116.336 67.7919 116.998 66.3769 117.372 64.8723C117.596 63.9136 117.717 62.9329 117.734 61.9475C117.766 60.0124 117.461 58.1445 116.575 56.4112C116.225 55.715 115.84 55.0372 115.423 54.3809ZM114.262 62.7088C114.125 64.2915 113.551 65.8028 112.606 67.0666C112.095 67.7694 111.627 68.5066 111.172 69.2475C110.731 69.9828 110.408 70.7849 110.215 71.6235C110.148 71.8942 110.041 72.1543 109.951 72.4191C109.925 72.475 109.903 72.5333 109.886 72.5931C109.787 73.2547 109.693 73.9174 109.594 74.5788C109.491 75.4966 109.51 76.4241 109.651 77.3366C109.759 78.2676 109.904 79.1956 109.972 80.1292C110.139 82.4003 108.709 85.9432 106.27 87.512C105.661 87.9044 105.048 88.2927 104.44 88.688C103.304 89.3823 102.318 90.3037 101.541 91.3966C101.464 91.5101 101.346 91.5949 101.261 91.7045C101.131 91.8725 101.008 92.047 100.892 92.2256C100.808 92.3547 100.755 92.5073 100.662 92.6283C99.9425 93.5878 99.4114 94.6798 99.0979 95.8443C98.9131 96.4891 98.7256 97.1342 98.5727 97.7882C98.0202 100.148 96.5906 101.835 94.6574 103.142C93.668 103.777 92.554 104.185 91.3936 104.335C90.4098 104.493 89.4206 104.647 88.4592 104.903C87.7887 105.121 87.1344 105.388 86.5011 105.7C86.1921 105.833 85.8925 105.988 85.5894 106.135C85.5197 106.166 85.4526 106.204 85.3892 106.248C85.0286 106.509 84.6775 106.785 84.3093 107.034C83.4457 107.634 82.6795 108.369 82.0387 109.21C81.6746 109.674 81.3036 110.134 80.9598 110.613C79.8243 112.195 78.2781 113.151 76.4653 113.705C75.6537 113.959 74.8103 114.092 73.9615 114.098C73.2132 114.079 72.4702 113.966 71.749 113.762C70.7622 113.537 69.781 113.264 68.7814 113.122C68.0763 113.023 67.3462 113.107 66.6271 113.114C66.5049 113.114 66.3838 113.15 66.2614 113.154C66.0329 113.131 65.8028 113.135 65.5755 113.167C64.5039 113.482 63.3581 113.515 62.3458 114.052C61.6659 114.412 60.9798 114.762 60.3043 115.132C59.48 115.584 58.6745 116.085 57.744 116.279C55.0661 116.835 52.5568 116.504 50.3201 114.777C49.6606 114.267 48.9993 113.756 48.3208 113.272C47.4901 112.677 46.564 112.234 45.5842 111.963C45.3807 111.897 45.1808 111.821 44.9853 111.733C44.9038 111.691 44.8188 111.655 44.7314 111.628C44.0858 111.5 43.441 111.37 42.7926 111.258C41.8948 111.129 40.9845 111.118 40.0841 111.227C39.3203 111.299 38.5579 111.39 37.7927 111.44C36.0428 111.555 34.466 110.992 32.9831 110.104C31.7898 109.409 30.8001 108.402 30.1171 107.187C29.7306 106.493 29.3356 105.805 28.9326 105.123C27.7444 103.061 25.8075 101.555 23.5423 100.932C22.9231 100.751 22.3058 100.563 21.6817 100.404C19.1317 99.7548 17.3855 98.0969 16.1172 95.8306C15.5334 94.7868 15.3567 93.6281 15.1916 92.4661C15.0331 91.352 14.9012 90.2254 14.4636 89.1827C13.6224 87.178 12.5201 85.3547 10.7912 83.9973C10.3168 83.625 9.85661 83.2341 9.37356 82.8748C7.65284 81.5954 6.68202 79.8311 6.17283 77.7669C5.84639 76.4253 5.85487 75.0216 6.19756 73.6841C6.46157 72.6886 6.67472 71.6799 6.83605 70.662C6.91943 69.9015 6.92649 69.1345 6.85702 68.3725C6.84241 68.1461 6.78824 67.3666 6.70275 66.6709C6.64269 66.182 6.59111 65.6996 6.53011 65.2983C6.39163 63.9042 5.8 62.7544 5.15726 61.5359C4.83012 60.9169 4.50298 60.2968 4.20034 59.6639C3.62307 58.3938 3.39203 56.9884 3.53122 55.596C3.57856 54.9885 3.66923 54.3854 3.80207 53.7914C4.02935 52.7652 4.47637 51.8028 5.11133 50.9734C5.61558 50.3033 6.12737 49.639 6.61725 48.9574C7.28378 48.0008 7.80122 46.9448 8.15074 45.8269C8.35234 45.2211 8.46068 44.601 8.63897 43.9954C9.02052 42.6995 8.99225 41.3711 8.88156 40.0408C8.8361 39.4957 8.78734 38.9509 8.73883 38.4059C8.56266 36.4031 9.14439 34.6077 10.1845 32.9404C10.8635 31.8156 11.8126 30.8853 12.9422 30.2378C13.6803 29.8214 14.4149 29.3978 15.1391 28.957C16.1198 28.3404 16.9915 27.5597 17.7178 26.6482C18.8163 25.3145 19.615 23.7519 20.058 22.0702C20.1932 21.5737 20.3642 21.0862 20.5017 20.5911C21.216 18.0006 24.3103 15.0345 27.6156 14.7573C28.455 14.6867 29.2878 14.5266 30.1225 14.41C31.7113 14.2098 33.157 13.3684 34.1332 12.0753C34.6101 11.4633 35.1028 10.8609 35.5374 10.2184C37.0475 7.98646 39.1945 6.85847 41.7596 6.45336C42.9019 6.27264 44.0168 6.48624 45.1318 6.73823C46.0739 6.95087 47.0252 7.12223 47.9783 7.27367C49.2796 7.48055 50.4786 7.11359 51.5985 6.47232C52.3734 6.02856 53.1334 5.55241 53.867 5.04145C56.2267 3.39771 58.7833 3.16707 61.4812 3.88946C62.1303 4.08386 62.7467 4.37738 63.3093 4.76017C64.0378 5.22409 64.7528 5.7108 65.486 6.16632C66.4422 6.73031 67.4762 7.14431 68.5534 7.39439C69.1486 7.5487 69.7494 7.60438 70.3434 7.73254C71.7546 8.03782 73.1517 7.85878 74.547 7.60126C75.4521 7.43327 76.3553 7.19951 77.2814 7.25735C80.0005 7.42655 82.3058 8.46646 83.9968 10.71C84.4914 11.3663 84.9177 12.0758 85.3807 12.7569C86.0955 13.7946 86.9733 14.7054 87.9785 15.4525C88.5073 15.8531 89.0763 16.1725 89.6135 16.5476C90.667 17.2861 91.8691 17.6656 93.1009 17.9569C93.5342 18.0592 93.9676 18.1621 94.4026 18.2552C96.9012 18.7902 98.686 20.3192 100.042 22.4492C100.665 23.4289 100.919 24.5348 101.143 25.6584C101.314 26.6107 101.533 27.5532 101.799 28.4825C102.043 29.1386 102.331 29.7766 102.663 30.3914C102.781 30.6441 102.913 30.8904 103.04 31.139C103.076 31.224 103.119 31.3056 103.169 31.3831C103.418 31.7172 103.687 32.0361 103.923 32.3796C104.602 33.329 105.43 34.1589 106.372 34.8364C106.791 35.153 107.21 35.4712 107.639 35.7724C109.426 37.0223 110.427 38.8009 110.996 40.8824C111.409 42.3896 111.294 43.8793 110.949 45.379C110.761 46.1993 110.632 47.035 110.504 47.8678C110.391 48.6903 110.418 49.5264 110.582 50.3398C110.598 50.3842 110.606 50.4305 110.607 50.4775C110.513 51.169 110.84 51.7862 110.944 52.4424C111.134 53.6313 111.643 54.7022 112.24 55.7304C112.576 56.309 112.916 56.885 113.254 57.4622C114.206 59.087 114.416 60.8618 114.261 62.7083L114.262 62.7088Z" fill="white"/>
<path d="M90.7522 60.0323C90.7428 42.0951 76.4544 27.6365 59.0511 27.5618C41.3227 27.486 27.0859 42.217 27.0567 59.9672C27.0275 77.7175 41.203 92.4771 58.8959 92.4843C76.4474 92.4915 90.7506 77.9186 90.7522 60.0323ZM58.8252 89.8606C42.5964 89.822 29.6109 76.3274 29.6323 60.0016C29.6573 43.6457 42.8625 30.1975 58.9133 30.1814C75.3008 30.2097 88.2025 43.8528 88.1794 60.0685C88.1563 76.2494 75.2486 89.8997 58.8252 89.8606Z" fill="white"/>
<path d="M92.468 39.9765L90.8652 40.5438C90.9201 40.7339 90.9536 40.8683 90.9976 40.9998C91.2461 41.7388 91.5092 42.4729 91.7409 43.2174C91.8059 43.4749 92.0169 43.6688 92.2751 43.7082C94.5785 44.3034 96.8772 44.9168 99.1758 45.5257C99.3313 45.5667 99.4846 45.6164 99.6391 45.6622C99.6412 45.6982 99.6436 45.7342 99.6457 45.77C98.8859 46.0417 98.1289 46.322 97.3652 46.5822C96.5879 46.8462 95.8277 47.1689 95.0179 47.3758L94.7118 46.6035L93.0959 47.1833L94.4181 51.0624L96.0406 50.4864L95.7109 49.4304C97.7436 48.6987 99.7463 47.9905 101.768 47.2904C101.912 47.6677 102.033 47.9816 102.165 48.3267L103.78 47.7562C103.735 47.593 103.705 47.4584 103.661 47.3285C103.411 46.5901 103.136 45.8593 102.915 45.1122C102.843 44.8088 102.593 44.5815 102.289 44.5422C99.9512 43.9583 97.6181 43.3556 95.2834 42.7578C95.1515 42.7242 95.0224 42.6791 94.8922 42.6392L94.8858 42.5286L99.5746 40.8726C99.6895 41.1438 99.7847 41.3682 99.8949 41.6288L101.513 41.0572L100.213 37.2412L98.5943 37.8158C98.6968 38.1724 98.7851 38.4803 98.8838 38.8238L92.8309 40.9597L92.468 39.9765Z" fill="white"/>
<path d="M85.0547 29.9238L83.7209 30.9884C83.8057 31.1139 83.8691 31.2183 83.9426 31.3146C84.432 31.9566 84.9374 32.5866 85.4073 33.2425C85.5477 33.4674 85.8103 33.5821 86.0667 33.5305C86.7837 33.4585 87.5034 33.4105 88.222 33.3543C89.6283 33.2422 91.0348 33.1304 92.4414 33.0183C92.8453 32.9869 93.2506 32.9684 93.6552 32.9437L93.6962 33.0464L89.8405 36.1131C89.6337 35.8705 89.4667 35.6744 89.2828 35.4589L87.937 36.5319L90.4204 39.7766L91.7706 38.7012L91.1257 37.7986C92.8201 36.4455 94.4852 35.1085 96.1817 33.7822L96.8783 34.6405L98.2208 33.5679C98.1283 33.4282 98.0666 33.3234 97.9935 33.2276C97.4956 32.5726 96.9897 31.9244 96.4996 31.2635C96.3741 31.0674 96.1447 30.9663 95.9186 31.0074C93.6889 31.2107 91.4576 31.3955 89.2263 31.5834C88.881 31.6127 88.5345 31.6273 88.19 31.6484C88.1732 31.6165 88.1568 31.5843 88.1405 31.5524C89.4446 30.5161 90.7416 29.4702 92.0707 28.4336L92.6055 29.0456L93.9551 27.9733C93.1378 26.9061 92.3396 25.8645 91.5151 24.7881L90.1573 25.8654C90.3817 26.1774 90.5676 26.4373 90.7696 26.7174L85.7123 30.7379L85.0547 29.9238Z" fill="white"/>
<path d="M16.0501 47.3995C18.1031 48.1176 20.1189 48.7915 22.1265 49.5187L21.825 50.5123L23.4501 51.0722C23.9059 49.7078 24.3477 48.3842 24.8037 47.021C24.2412 46.8269 23.724 46.6476 23.1816 46.4599C23.049 46.8079 22.9299 47.1204 22.8008 47.4597L16.7244 45.3521C17.1579 43.9793 17.6012 42.6603 18.0654 41.3228L24.1553 43.4347C24.0484 43.7844 23.9546 44.0904 23.8468 44.4439L25.4777 45.0096C25.9358 43.631 26.3758 42.3072 26.8252 40.9536L25.2001 40.3899L24.8364 41.3959L18.7491 39.284C18.8608 38.9161 18.954 38.6091 19.06 38.2589L17.4368 37.7021C16.3089 41.083 15.1918 44.4319 14.0623 47.8173L15.6793 48.3787C15.8103 48.0336 15.9241 47.7333 16.0501 47.3995Z" fill="white"/>
<path d="M60.4899 21.4133C61.2396 21.4613 61.9898 21.5266 62.7401 21.5347C64.1427 21.5599 65.3702 20.5397 65.6281 19.1348C65.808 18.2321 65.6568 17.4248 64.9389 16.7921C64.8956 16.7451 64.8586 16.6923 64.829 16.6352C65.0614 16.4192 65.2772 16.1854 65.4743 15.9356C65.9204 15.2732 65.9467 14.521 65.7767 13.7725C65.4724 12.4319 64.4234 11.553 63.0018 11.4368C61.5802 11.3207 60.1572 11.2336 58.7346 11.1373C58.5697 11.126 58.4049 11.1356 58.2165 11.1356C58.1317 11.7059 58.0996 12.2831 58.1208 12.8593L59.0865 12.9932C58.952 15.187 58.825 17.329 58.6534 19.49H57.6458C57.6124 20.066 57.5801 20.6179 57.5469 21.1887C57.6969 21.2086 57.7852 21.2254 57.8743 21.2319C58.7459 21.2935 59.6178 21.3576 60.4899 21.4133ZM61.2238 13.112C61.7938 13.1485 62.3141 13.1497 62.8254 13.2229C63.4563 13.3129 63.8365 14.1416 63.592 14.8162C63.4639 15.2852 63.0173 15.5938 62.5425 15.542C62.1143 15.5235 61.6869 15.4834 61.2594 15.4506C61.1932 15.4362 61.1282 15.4162 61.0651 15.3913C61.1176 14.63 61.1692 13.8899 61.2238 13.112ZM60.9523 17.222C61.5748 17.2628 62.1214 17.2957 62.6673 17.3374C62.7585 17.3489 62.847 17.3773 62.9283 17.4207C63.3704 17.6355 63.5901 18.2249 63.462 18.8388C63.3939 19.3695 62.9391 19.7674 62.4139 19.7554C61.9259 19.7386 61.4391 19.6899 60.952 19.6512C60.896 19.634 60.8425 19.6092 60.7931 19.5776C60.8446 18.8184 60.8967 18.0495 60.9523 17.222Z" fill="white"/>
<path d="M76.2235 23.5985C75.8798 24.0785 75.5607 24.5412 75.2578 25.0442L78.7033 27.4564L79.671 26.0148L78.829 25.3776L80.7565 22.5199C80.8175 22.7273 80.8559 22.8254 80.8743 22.9279C81.1023 24.1718 81.3147 25.4189 81.5611 26.6587C81.6388 26.9616 81.5705 27.2846 81.3776 27.528C81.0929 27.91 80.8416 28.318 80.5516 28.7519L83.2163 30.6162C83.5809 30.0748 83.9229 29.5663 84.2693 29.0519C84.1784 28.9643 84.0788 28.8866 83.9721 28.8199C83.7224 28.69 83.5616 28.4311 83.5531 28.1457C83.3411 26.8992 83.1158 25.6545 82.9002 24.4085C82.8849 24.2709 82.8781 24.1327 82.88 23.9942C83.1 23.9582 83.279 23.9208 83.4601 23.9006C84.4359 23.7929 85.4149 23.7036 86.3874 23.5795C86.897 23.5145 87.3963 23.4115 87.8163 23.9174L88.8877 22.3239L86.1476 20.4082C85.8275 20.8781 85.531 21.2947 85.2562 21.726C85.1476 21.9142 84.9521 22.0339 84.738 22.0435C83.5489 22.1739 82.3625 22.3279 81.1746 22.4693C81.05 22.4722 80.9252 22.4664 80.8013 22.4522L82.4549 19.9959L83.3461 20.5635L84.3178 19.1235L80.8536 16.7021L79.8865 18.1462L80.6828 18.7556C80.2273 19.609 77.2864 23.9016 77.0087 24.1176L76.2235 23.5985Z" fill="white"/>
<path d="M21.4739 34.6744L26.587 38.2967L26.019 39.1902L27.4264 40.1876L31.9157 33.5995L29.039 31.5638L27.8614 33.2935C28.3537 33.6475 28.812 33.977 29.3082 34.3341C28.7979 35.0812 28.312 35.7916 27.8049 36.5344L25.8597 35.1515L26.9667 33.4809L25.4758 32.4273C25.0863 32.9858 24.7168 33.5147 24.3284 34.0718L22.6649 32.8915C23.183 32.1268 23.6513 31.4059 24.1692 30.7017C24.5875 30.9864 24.9511 31.2343 25.3355 31.4959L26.5048 29.7657L23.7704 27.835L19.2854 34.4195L20.8384 35.5218L21.4739 34.6744Z" fill="white"/>
<path d="M50.9512 22.2795C52.6602 22.2863 53.9423 21.6911 54.8154 20.643C56.7297 18.3477 56.3592 14.7371 54.016 12.857C52.1507 11.3126 49.3932 11.5142 47.7637 13.3144C46.2872 14.8984 45.9775 17.4904 47.0486 19.5186C47.9549 21.2339 49.3603 22.1828 50.9512 22.2795ZM48.9964 15.1156C49.4097 14.3387 50.2103 13.8532 51.0777 13.8532C51.6297 13.8532 52.1651 14.05 52.59 14.4095C53.8444 15.5147 54.2228 17.3507 53.5113 18.8769C53.1124 19.7099 52.2788 20.2403 51.3693 20.2403C50.747 20.2403 50.1488 19.9921 49.7037 19.5489C48.9745 18.8392 48.5687 17.8504 48.5849 16.823C48.571 16.2268 48.7131 15.6374 48.9964 15.1156Z" fill="white"/>
<path d="M69.0699 22.7921C70.7702 24.0974 73.1574 24.0069 74.7578 22.5761C74.9441 22.4049 75.0972 22.1966 75.2886 21.9797L73.5458 20.7766C73.4075 20.8946 73.3161 20.9772 73.2198 21.0535C71.7949 22.1858 69.9211 21.575 69.399 19.8089C69.2287 19.2375 69.2108 18.6298 69.3471 18.049C69.6013 16.9436 70.1646 16.0618 71.1946 15.5612C72.3272 15.0104 73.7947 15.446 74.2328 16.5505C74.4109 17.0616 74.8506 17.4339 75.3765 17.5184C75.4804 17.5436 75.5793 17.5892 75.6827 17.6208C75.9111 17.6914 76.14 17.7593 76.3994 17.8368C76.6302 17.1267 76.8447 16.4667 77.0675 15.7805C76.719 15.6605 76.4194 15.5437 76.112 15.4539C75.8438 15.3872 75.6144 15.2101 75.4787 14.965C75.2189 14.4999 74.835 14.1195 74.3717 13.8678C73.1616 13.1758 71.7059 13.082 70.4199 13.6129C68.3697 14.4289 67.0299 16.5972 67.1259 18.9291C67.1909 20.5176 67.8064 21.833 69.0699 22.7921Z" fill="white"/>
<path d="M33.9501 31.1822C36.0295 30.7353 37.7516 28.6283 37.4782 26.2142C37.4612 25.8199 37.3463 25.4364 37.144 25.0997L35.2763 25.9927C35.3045 26.1607 35.3234 26.268 35.3401 26.3752C35.3688 26.5255 35.3832 26.6779 35.3832 26.831C35.3832 28.1373 34.3283 29.2125 33.0461 29.2125C32.9138 29.2125 32.7816 29.201 32.6512 29.1782C31.0202 28.9533 29.6431 27.3252 29.66 25.6466C29.6754 24.1622 30.9041 22.9586 32.3568 23.2397C32.6523 23.3126 32.9646 23.215 33.1688 22.9853C33.4364 22.7282 33.7266 22.4966 34.0031 22.249C34.0909 22.1698 34.166 22.0752 34.2598 21.9737L32.8801 20.3506C32.5725 20.6167 32.3009 20.8431 32.0397 21.0811C31.8937 21.2184 31.7027 21.2955 31.5042 21.2971C30.9959 21.2895 30.4931 21.4059 30.0378 21.6365C29.2147 22.073 28.5451 22.7602 28.1223 23.6021C27.2038 25.5122 27.412 27.358 28.6327 29.0339C29.9488 30.8416 31.7385 31.6569 33.9501 31.1822Z" fill="white"/>
<path d="M38.0671 19.6899L37.532 18.4969L38.6726 17.9319C39.6286 19.9356 40.5632 21.895 41.51 23.8802L40.5985 24.3797C40.8642 24.9182 41.086 25.4385 41.3675 25.9385C42.0427 25.6025 42.6659 25.3015 43.2825 24.9869C43.8913 24.6761 44.5268 24.415 45.1196 24.0458L44.3694 22.4979L43.4182 22.943L40.5728 16.9794L41.8696 16.353L42.4537 17.515L44.3155 16.5879L43.0185 13.874L34.918 17.8928L36.2171 20.6064L38.0671 19.6899Z" fill="white"/>
<path d="M64.8175 102.186L65.8232 102.106V100.571C65.6409 100.571 65.521 100.567 65.4014 100.571C64.7579 100.599 64.1147 100.645 63.4715 100.65C63.2108 100.635 62.9628 100.771 62.8304 101C62.2416 101.877 61.6344 102.741 61.0313 103.607C60.9561 103.715 60.865 103.812 60.7651 103.933C60.6672 103.826 60.6019 103.76 60.5428 103.69C59.8379 102.844 59.1297 102.002 58.4332 101.149C58.3174 100.983 58.1228 100.893 57.9243 100.913C57.4497 100.941 56.9737 100.939 56.4989 100.962C56.1847 100.977 55.8717 101.014 55.5627 101.041C55.5627 101.353 55.5521 101.603 55.566 101.852C55.5794 102.093 55.6181 102.333 55.6458 102.574H56.603C56.6423 103.561 56.6805 104.518 56.7194 105.493L55.7189 105.579C55.7459 106.108 55.7707 106.597 55.7978 107.125L59.1794 106.971V105.457L58.4806 105.394C58.4502 104.791 58.4212 104.214 58.392 103.637L58.5034 103.593L60.8822 106.353C61.2675 105.816 61.6163 105.326 61.9679 104.839C62.3153 104.357 62.6439 103.859 63.0141 103.395L63.1163 103.436C63.1413 104.019 63.1663 104.603 63.1919 105.201L62.544 105.284C62.5735 105.797 62.6015 106.286 62.6319 106.822L65.9998 106.665V105.101H64.94C64.8995 104.114 64.8594 103.168 64.8175 102.186Z" fill="white"/>
<path d="M68.788 99.7919C68.7174 99.8599 68.6389 99.9196 68.5337 100.01C68.3938 99.586 68.5005 99.1166 68.8092 98.7991C69.1486 98.434 69.5761 98.1659 70.049 98.0219C70.558 97.8504 71.0728 97.6968 71.5839 97.5319C71.7831 97.4676 71.9791 97.3934 72.1908 97.3185C72.0246 96.7219 71.8708 96.1689 71.6962 95.5459C71.2151 95.6817 70.7888 95.7998 70.3644 95.9249C70.3078 95.9393 70.2593 95.976 70.2294 96.0271C70.2765 96.3669 69.9901 96.3489 69.8144 96.4161C69.232 96.6146 68.6837 96.905 68.1893 97.2763C67.194 98.0781 66.7072 99.1216 66.954 100.404C67.165 101.426 67.4319 102.436 67.7534 103.428C67.8848 103.811 68.0895 104.163 68.3556 104.465C69.6067 105.938 71.7537 105.602 72.8698 104.565C73.9193 103.591 74.1626 102.11 73.5135 100.696C73.0528 99.6177 72.0038 98.9171 70.8498 98.9171C70.0759 98.9171 69.3333 99.2323 68.788 99.7919ZM70.7598 103.843C69.9119 103.865 69.1444 103.064 69.1394 102.15C69.1477 101.289 69.8319 100.579 70.6767 100.555C71.5052 100.553 72.1522 101.315 72.1605 102.303C72.1614 102.325 72.1621 102.348 72.1621 102.37C72.1621 103.162 71.5356 103.819 70.7591 103.843L70.7598 103.843Z" fill="white"/>
<path d="M89.8544 92.7243L88.0015 90.4748L88.6252 89.8748L87.6539 88.7021L85.0187 90.9648L85.9935 92.1408L86.6605 91.621L87.1461 92.2162L85.1312 93.9442C84.9605 93.7282 84.8123 93.5417 84.6366 93.3202L85.2469 92.7905C84.908 92.3787 84.599 92.0028 84.2709 91.6037L81.6328 93.8659C81.9713 94.2766 82.2821 94.6541 82.6041 95.0441L83.3121 94.4959L85.1687 96.7507L84.5201 97.3665C84.8561 97.7745 85.1597 98.1417 85.4892 98.5413L88.1271 96.2791C87.7816 95.8615 87.4711 95.4871 87.1518 95.0998C86.9141 95.2867 86.7245 95.4358 86.5034 95.61L85.8859 94.8485L87.9054 93.1193L88.5147 93.883L87.9064 94.4616L88.8777 95.6376L91.5091 93.3751L90.5435 92.2011L89.8544 92.7243Z" fill="white"/>
<path d="M82.1018 98.8379C81.6597 97.9646 81.2282 97.1126 80.7911 96.2493L81.4002 95.8627L80.6971 94.499C80.1149 94.8055 79.5803 95.1067 79.028 95.369C78.772 95.4744 78.5934 95.716 78.565 95.9956C78.3348 97.3176 78.0833 98.6356 77.8365 99.9542C77.8016 100.085 77.7599 100.214 77.7114 100.341L76.7211 98.3877L77.324 97.997C77.0932 97.5429 76.8718 97.109 76.6337 96.6393C75.6659 97.1515 74.7462 97.6379 73.7891 98.1441L74.4827 99.5018L75.1739 99.2047L76.4928 101.805L75.8725 102.201C76.0972 102.684 76.3148 103.121 76.5691 103.554C77.1504 103.248 77.6721 102.948 78.2154 102.698C78.4999 102.581 78.6978 102.311 78.7277 102C78.9606 100.711 79.2162 99.4252 79.4665 98.1391C79.5023 98.0155 79.5461 97.8945 79.5975 97.7767C79.9461 98.4563 80.2708 99.0446 80.5445 99.6654L79.919 100.063L80.6149 101.422L83.4586 99.9124C83.2083 99.4274 82.989 99.0028 82.7641 98.5684L82.1018 98.8379Z" fill="white"/>
<path d="M23.495 82.4486L24.8212 81.7613C23.7786 79.6685 22.7618 77.6271 21.7371 75.5693C21.2788 75.7762 20.8324 76.0097 20.4005 76.2689C20.5303 76.5569 20.636 76.7928 20.7618 77.0708C20.2743 77.2954 19.8383 77.5239 19.3828 77.7C18.6131 77.9976 18.0116 77.7939 17.5344 77.114C17.4388 76.9781 17.3505 76.8372 17.2391 76.6685L15.9138 77.3672C16.0846 77.7058 16.2179 77.9866 16.3653 78.2597C16.8601 79.2756 17.981 79.8199 19.067 79.5715C19.7754 79.4314 20.4601 79.1878 21.1 78.8479C21.2444 78.7759 21.3946 78.7164 21.5618 78.6423C21.8193 79.159 22.0701 79.6154 22.2825 80.1245L19.6829 81.4668L19.2773 80.6959C18.5272 80.9892 18.1451 81.2155 17.961 81.4742L19.5816 84.7346C20.0482 84.5356 20.5001 84.3031 20.9342 84.0386L20.4853 83.0532C21.3704 82.5926 22.2046 82.1465 23.072 81.7277L23.495 82.4486Z" fill="white"/>
<path d="M44.5157 99.5223C44.3348 99.9915 43.8772 100.121 43.5145 100.364C43.4554 100.38 43.3927 100.373 43.3388 100.344C43.1702 100.279 43.0051 100.205 42.807 100.122C43.1026 99.3322 43.3854 98.5786 43.6838 97.7825L41.1991 96.7959C41.0107 97.2999 40.8387 97.7576 40.659 98.2359C40.8345 98.3129 40.9598 98.3662 41.083 98.4231C41.217 98.4843 41.3496 98.5493 41.5102 98.6254C41.1541 99.5549 40.8161 100.437 40.4598 101.367L39.5763 101.049L39.0273 102.492L42.0934 103.707L42.6369 102.28L42.0891 101.992C42.1871 101.751 42.2775 101.527 42.3635 101.316C42.7399 101.311 43.0679 101.587 43.1355 101.964C43.3541 102.696 43.6151 103.414 43.872 104.133C43.9104 104.279 43.9975 104.407 44.1181 104.495C44.5447 104.697 44.9896 104.855 45.4632 105.044L46.0134 103.598C45.7988 103.51 45.6255 103.452 45.4639 103.369C45.3513 103.327 45.2543 103.25 45.1857 103.15C44.9458 102.598 44.7293 102.035 44.4926 101.446C45.0463 101.12 45.5437 100.815 46.056 100.538C46.1837 100.501 46.32 100.507 46.4439 100.556C46.6585 100.613 46.8655 100.7 47.0996 100.784C47.288 100.286 47.4578 99.8405 47.6429 99.3528L44.9914 98.3004C44.8198 98.7411 44.6664 99.1323 44.5157 99.5223Z" fill="white"/>
<path d="M103.757 63.518C103.358 63.5007 102.959 63.5135 102.56 63.5123C101.89 63.5096 101.787 63.4311 101.58 62.7704C101.487 62.4726 101.394 62.175 101.3 61.8776C101.276 61.8035 101.251 61.7298 101.224 61.6566C101.151 61.4245 100.936 61.2673 100.697 61.2726C100.458 61.2688 100.244 61.4307 100.178 61.6659C100.036 62.0785 99.9096 62.4973 99.7713 62.9111C99.6064 63.4076 99.4764 63.5055 98.9734 63.511C98.5438 63.5166 98.1137 63.5046 97.6844 63.5163C97.4142 63.4832 97.1573 63.6534 97.077 63.9183C96.9971 64.177 97.0729 64.3863 97.344 64.603C97.682 64.8733 98.027 65.1325 98.3678 65.4008C98.7868 65.7313 98.8429 65.8981 98.6936 66.4088C98.5666 66.8429 98.4182 67.2706 98.2969 67.7064C98.186 67.9608 98.276 68.2625 98.507 68.4111C98.7171 68.5577 99.0019 68.5344 99.1865 68.3556C99.4456 68.1612 99.7084 67.9702 99.968 67.776C100.662 67.2576 100.737 67.256 101.419 67.7542C101.681 67.9462 101.939 68.1423 102.206 68.3266C102.488 68.5222 102.712 68.5294 102.928 68.3672C103.144 68.2049 103.191 67.9949 103.097 67.6491C103.076 67.5737 103.051 67.4996 103.028 67.4254C102.92 67.0834 102.805 66.7433 102.704 66.3992C102.565 65.9278 102.628 65.7327 103.013 65.4241C103.363 65.1442 103.719 64.8721 104.073 64.5975C104.233 64.5018 104.339 64.3333 104.356 64.1451C104.357 64.1293 104.358 64.1134 104.358 64.0976C104.358 63.7791 104.101 63.517 103.788 63.517C103.778 63.517 103.767 63.5175 103.757 63.518Z" fill="white"/>
<path d="M17.5623 67.5854C17.8921 67.8129 18.21 68.0584 18.5369 68.2905C18.8857 68.5379 19.1052 68.561 19.332 68.3779C19.6121 68.152 19.5708 67.8676 19.4733 67.5688C19.3518 67.1987 19.2378 66.8263 19.1257 66.4528C18.9641 65.914 19.0167 65.7494 19.4529 65.4079C19.8061 65.1319 20.167 64.8679 20.5115 64.5818C20.8412 64.3077 20.8763 63.9381 20.5822 63.7053C20.4329 63.6017 20.2579 63.5433 20.0772 63.5373C19.6646 63.5133 19.2496 63.5328 18.8358 63.5277C18.3271 63.5215 18.2022 63.4279 18.0371 62.9299C17.8998 62.5159 17.7738 62.0981 17.6349 61.685C17.5649 61.4498 17.3506 61.2881 17.1094 61.2881C16.876 61.2881 16.6669 61.44 16.5906 61.6649C16.5522 61.7666 16.5199 61.8708 16.4858 61.9745C16.3708 62.3304 16.2571 62.6866 16.1414 63.0422C16.0698 63.3425 15.7943 63.5489 15.4916 63.5285C15.2618 63.5265 15.0316 63.5285 14.8018 63.5285V63.5309H14.1119C13.8434 63.503 13.5874 63.6602 13.4857 63.9149C13.3837 64.1709 13.4723 64.3949 13.7683 64.6348C14.0933 64.8955 14.4278 65.146 14.7551 65.4028C15.2125 65.7592 15.2599 65.9145 15.0837 66.4879C14.96 66.8901 14.8166 67.2868 14.7158 67.6948C14.6685 67.8712 14.6758 68.0582 14.7368 68.2303C14.8729 68.5471 15.2356 68.6128 15.5559 68.3937C15.925 68.1417 16.2752 67.8616 16.6393 67.6017C16.8937 67.3516 17.2995 67.3444 17.5623 67.5854Z" fill="white"/>
<path d="M98.5416 80.674C97.648 80.1991 96.7832 79.75 95.9273 79.2278L96.4219 78.3278L97.4474 78.8361L98.246 77.3071L95.9358 76.0459L92.5137 82.5498C93.3041 82.9818 94.0446 83.4045 94.8312 83.8055L95.6266 82.2851L94.6282 81.7096L95.1049 80.8216C95.9963 81.3093 96.8628 81.7559 97.7055 82.2594C97.5581 82.5734 97.4351 82.8354 97.3032 83.1157L98.6311 83.8389L100.394 80.4914L99.0595 79.7678C98.8774 80.0877 98.718 80.3656 98.5416 80.674Z" fill="white"/>
<path d="M95.135 86.4618C94.8971 86.2746 94.6931 86.1147 94.4894 85.9539C94.0163 85.5808 93.5617 85.1802 93.0669 84.8399C92.2013 84.2449 91.3765 84.3008 90.5666 84.9738C90.0027 85.4389 89.5673 86.0456 89.3025 86.7339C89.0993 87.2017 88.9931 87.7071 88.9902 88.2186L90.1167 88.465C90.1754 88.2788 90.2138 88.1458 90.258 88.0153C90.4455 87.399 90.803 86.8503 91.2877 86.4354C91.7263 86.0799 92.0913 86.1234 92.4974 86.5439C92.2755 86.7858 92.0753 86.9999 91.8787 87.219C91.4503 87.6488 91.1372 88.1838 90.9696 88.772C90.7757 89.4356 90.9924 90.1565 91.5174 90.596C92.0148 91.0947 92.7685 91.226 93.4001 90.9241C93.7296 90.7609 94.0316 90.5453 94.2951 90.2861C94.7318 89.8736 94.9965 89.3055 95.0344 88.7C95.1689 88.7017 95.302 88.671 95.4223 88.61C95.9016 88.0263 96.3599 87.4244 96.8449 86.8026L95.6611 85.8404L95.135 86.4618ZM93.8274 88.6698C93.7193 88.8915 93.5777 89.0948 93.4079 89.2719C93.288 89.4166 93.1114 89.5002 92.9256 89.5002C92.5796 89.5002 92.2946 89.21 92.2946 88.8572C92.2946 88.7247 92.3349 88.5954 92.4098 88.4871C92.4964 88.3412 92.5949 88.203 92.7042 88.0736C92.9022 87.818 93.1046 87.5655 93.3073 87.3138C93.3408 87.2891 93.3775 87.2699 93.4166 87.2562C94.1142 87.7299 94.1795 87.9313 93.8262 88.67L93.8274 88.6698Z" fill="white"/>
<path d="M23.9642 86.3013L26.713 89.8422C27.1934 89.4971 27.6068 89.0639 27.932 88.5649C28.1958 88.1591 28.3472 87.6882 28.3706 87.202C28.3974 85.9173 27.7916 84.9738 26.7485 84.3518C24.7124 83.1371 22.4665 84.6916 22.0343 86.5173C21.9535 86.8504 21.93 87.195 21.9649 87.5363C22.1337 89.0046 23.3617 90.3824 24.841 90.7748L25.3356 89.6207C25.1729 89.5064 25.028 89.4205 24.9013 89.3123C24.597 89.0524 24.2861 88.7975 24.0063 88.5112C23.7197 88.2212 23.5447 87.8358 23.5136 87.4257C23.4343 86.9939 23.6109 86.5528 23.9642 86.3013ZM26.5611 86.0094C27.0085 86.5854 26.9958 87.087 26.4774 87.6311L24.9289 85.6302C25.5222 85.2676 26.1006 85.4162 26.5611 86.0094Z" fill="white"/>
<path d="M50.8239 99.8584C50.8216 99.8584 50.8192 99.8584 50.8169 99.8584C49.0926 99.8584 47.6738 101.304 47.6738 103.061C47.6738 103.084 47.6741 103.107 47.6745 103.13C47.6745 104.831 48.874 106.307 50.9419 106.322C53.0581 106.337 54.0654 104.57 54.0645 103.088C54.0774 101.276 52.6732 99.8759 50.8239 99.8584ZM50.8628 104.712C50.8522 104.713 50.8414 104.713 50.8308 104.713C50.0224 104.713 49.3573 104.035 49.3573 103.211C49.3573 103.196 49.3576 103.18 49.358 103.164C49.3507 102.184 49.9991 101.457 50.8753 101.462C50.9038 101.46 50.9323 101.459 50.961 101.459C51.7352 101.459 52.3725 102.108 52.3725 102.897C52.3725 102.931 52.3713 102.964 52.3689 102.998C52.3581 104.146 51.5618 104.774 50.8628 104.713V104.712Z" fill="white"/>
<path d="M36.1241 93.9686C34.5132 93.9302 32.9446 95.3152 32.9182 97.2757C32.8947 98.9783 34.4541 100.473 36.1967 100.484C37.8887 100.495 39.3291 98.9989 39.3378 97.2203C39.3463 95.4669 37.8863 94.0103 36.1241 93.9686ZM36.0683 98.8494C35.264 98.8465 34.6036 98.1714 34.6036 97.3518C34.6036 97.3396 34.6039 97.3276 34.6041 97.3153C34.6041 96.3925 35.3399 95.5873 36.1866 95.5801C37.0003 95.5792 37.6741 96.2524 37.6892 97.0813C37.6845 98.0053 36.9146 98.8451 36.0683 98.8496V98.8494Z" fill="white"/>
<path d="M34.2179 92.8007C34.0954 92.6534 33.9633 92.5147 33.8225 92.3855C33.5542 92.177 33.3538 91.8909 33.2473 91.5647C33.049 91.0536 32.7181 90.6064 32.2902 90.2719C31.3208 89.4388 30.2376 89.2214 29.0781 89.7381C27.9165 90.2054 27.1353 91.3379 27.0974 92.6099C26.9754 94.6141 28.8699 96.3249 30.8238 96.0148C31.1823 95.9913 31.5235 95.8492 31.7956 95.6099C31.6571 95.3869 31.5273 95.1767 31.3952 94.9672C31.2562 94.7462 31.1149 94.5263 30.9903 94.3307C30.7056 94.3828 30.4171 94.4109 30.1276 94.4145C29.3461 94.3619 28.731 93.6921 28.731 92.8941C28.731 92.8315 28.7347 92.7691 28.7423 92.7069C28.8516 91.8007 29.7039 91.0893 30.5442 91.2033C31.2774 91.3219 31.8516 91.9199 31.9522 92.6695C31.956 92.8204 32.0014 92.9673 32.0836 93.093C32.4051 93.4221 32.7577 93.7194 33.1199 94.048L34.2179 92.8007Z" fill="white"/>
<path d="M104.961 42.9006C104.784 42.8572 104.618 42.7725 104.478 42.653C103.91 42.1367 103.821 41.2535 104.275 40.6307C104.32 40.57 104.36 40.5059 104.401 40.4452L103.897 38.9834C103.201 39.5188 102.727 40.1195 102.678 40.9783C102.617 41.9234 102.918 42.8565 103.517 43.5808C104.072 44.2725 104.819 44.5129 105.753 44.4448C105.606 44.0082 105.466 43.6466 105.365 43.2743C105.324 43.0746 105.16 42.9237 104.961 42.9006Z" fill="white"/>
<path d="M66.1924 61.8324C65.6307 61.5137 65.0525 61.2264 64.4601 60.9716C64.1704 60.8386 63.8595 60.7534 63.5289 60.6356C63.5475 60.3087 63.5708 59.9986 63.5814 59.6883C63.6033 59.0453 63.3108 58.7406 62.6852 58.7C62.303 58.6834 61.9228 58.6338 61.5488 58.551C59.8472 58.1348 58.44 57.1734 57.1408 56.0243C56.9178 55.827 56.8996 55.6681 57.0744 55.3621C57.4291 54.7415 57.7657 54.1055 58.171 53.5201C59.5841 51.5284 61.2198 49.7106 63.0451 48.1041C64.2069 47.0565 65.4097 46.0603 66.8134 45.3521C66.9223 45.2947 67.0216 45.2203 67.1078 45.1315C67.7294 44.5044 68.3561 43.8811 68.9621 43.2391C69.2174 42.996 69.3627 42.6554 69.3627 42.2993C69.3627 41.9705 69.2391 41.6539 69.0172 41.4151C68.3377 40.6711 67.6307 39.9511 66.9039 39.2568C66.4027 38.768 65.5977 38.7792 65.1099 39.2823C64.9957 39.3864 64.8904 39.5012 64.7818 39.6116C61.0606 43.4054 57.3394 47.2 53.6181 50.9951C53.4483 51.2178 53.1949 51.3589 52.9191 51.3841C52.531 51.4115 52.1683 51.5925 51.909 51.8881C50.8131 53.0053 49.7092 54.1148 48.6234 55.2416C48.2855 55.5656 48.0938 56.018 48.0938 56.4908C48.0938 56.9569 48.2803 57.4035 48.6098 57.7268C49.3097 58.4725 50.0349 59.1941 50.7561 59.9189C51.0955 60.2969 51.5974 60.4801 52.095 60.4076C52.5409 60.332 52.7439 60.5353 52.9165 60.9137C52.7517 60.9879 52.6 61.0577 52.4469 61.1232C51.7302 61.4057 51.0625 61.8027 50.4685 62.2992C49.7273 62.9059 49.3031 63.8302 49.3208 64.7988C49.3321 69.8349 49.3255 74.8708 49.3276 79.9069C49.3239 80.0787 49.3397 80.2506 49.3747 80.4186C49.4638 80.7673 49.7751 81.0126 50.1286 81.0126C50.3569 81.0126 50.5738 80.9106 50.7217 80.7337C50.8727 80.5534 50.9476 80.3194 50.9301 80.083C50.9266 79.3167 50.9266 78.5504 50.9301 77.7841C50.9301 77.6524 50.9518 77.5201 50.9671 77.3521C51.0663 77.3879 51.1635 77.4287 51.2587 77.4743C52.3096 78.0277 53.4328 78.4251 54.5941 78.6541C54.7138 78.6819 54.836 78.6973 54.9587 78.6999C54.9653 78.7002 54.9719 78.7002 54.9785 78.7002C55.4093 78.7002 55.7637 78.339 55.7637 77.9C55.7637 77.5669 55.5595 77.2672 55.2534 77.1505C55.0826 77.0843 54.8942 77.0677 54.7197 77.0108C53.9469 76.7586 53.1652 76.5289 52.4099 76.2311C52.0463 76.0648 51.7069 75.8485 51.4012 75.5879C51.0747 75.3402 50.8941 74.9389 50.9233 74.5252C50.9429 73.775 50.9268 73.024 50.9306 72.2731C50.9393 72.1514 50.9556 72.0302 50.9796 71.9107C51.4652 72.1528 51.8936 72.3959 52.344 72.586C54.3459 73.432 56.4479 73.7217 58.5992 73.7217C58.6606 73.7234 58.7219 73.7195 58.7826 73.7102C59.0782 73.6643 59.3225 73.4483 59.4087 73.1565C59.5019 72.8838 59.4341 72.5798 59.2341 72.3753C59.0634 72.1922 58.8222 72.094 58.5747 72.1067C57.8092 72.063 57.0419 72.0283 56.2802 71.9459C55.1179 71.8281 53.9794 71.5348 52.9019 71.0757C52.3734 70.8607 51.8842 70.5566 51.4546 70.1762C51.188 69.982 51.0079 69.6871 50.9546 69.3576C50.9209 68.6637 50.9445 67.9668 50.9445 67.1976C51.3449 67.4102 51.6713 67.6032 52.014 67.7621C52.3621 67.9238 52.7206 68.0633 53.083 68.1919C53.4302 68.3153 53.7832 68.4252 54.1398 68.5166C54.5112 68.6126 54.8885 68.6858 55.2658 68.7532C55.6431 68.8207 56.0228 68.8778 56.4036 68.9212C56.7845 68.9647 57.1672 68.9959 57.5497 69.016C57.9173 69.0357 58.2862 69.04 58.654 69.04C59.0377 69.04 59.4218 69.0352 59.8048 69.016C60.1878 68.9968 60.57 68.9644 60.9509 68.92C61.3317 68.8756 61.7106 68.8154 62.0875 68.746C62.4643 68.6767 62.8411 68.5994 63.2119 68.5036C63.5682 68.412 63.9224 68.3059 64.2689 68.1811C64.6297 68.0515 64.9856 67.9034 65.3337 67.7417C65.6721 67.5847 65.9983 67.4001 66.3375 67.2235C66.357 67.2737 66.3718 67.3255 66.3822 67.3783C66.3855 68.8171 66.3876 70.2559 66.3886 71.6947C66.3914 72.0127 66.2642 72.3182 66.0376 72.537C65.8097 72.7679 65.5602 72.9762 65.2934 73.1589C64.6928 73.5386 64.0407 73.8263 63.3581 74.013C63.0642 74.1011 62.7648 74.1714 62.4709 74.2593C62.1617 74.3296 61.9276 74.5921 61.8885 74.9125C61.8805 74.9586 61.8764 75.0054 61.8764 75.0525C61.8764 75.4919 62.2314 75.8538 62.6629 75.8538C62.7434 75.8538 62.8232 75.8411 62.9 75.8164C63.9834 75.5865 65.0256 75.1873 65.9891 74.6327C66.0982 74.5681 66.2164 74.5197 66.3914 74.4335V79.8613C66.3857 80.0175 66.3907 80.174 66.406 80.3295C66.4592 80.7224 66.7922 81.0183 67.1816 81.0183C67.5751 81.0183 67.9105 80.7159 67.9585 80.318C67.9736 80.1466 67.9781 79.9746 67.9722 79.8027V69.058C67.9722 67.5878 67.9621 66.1178 67.9762 64.6476C67.9944 63.919 67.7188 63.2136 67.2138 62.6974C66.9124 62.3645 66.5687 62.0736 66.1924 61.8324ZM61.8868 60.2941C61.8967 60.4167 61.8958 60.5398 61.884 60.6622C61.6598 61.8843 61.0632 63.0039 60.1793 63.8611C60.0003 64.0548 59.7473 64.1599 59.4864 64.1491C58.5382 64.1321 57.5893 64.1427 56.5942 64.1427C55.9896 62.3837 55.0433 60.7668 53.8122 59.3888L55.9877 57.1753C57.6825 58.6592 59.5629 59.8849 61.8868 60.2941ZM66.125 40.7189C66.495 41.1015 66.9039 41.5234 67.3118 41.9465C67.4077 42.0461 67.499 42.1498 67.614 42.275C67.533 42.377 67.4656 42.4757 67.3853 42.5616C66.6856 43.3478 65.8747 44.0237 64.9797 44.5668C63.7632 45.2707 62.7093 46.2189 61.6748 47.177C59.9565 48.7403 58.3983 50.4772 57.0238 52.3609C56.727 52.7752 56.4512 53.2052 56.1905 53.5916C55.7173 53.1116 55.2548 52.6437 54.8365 52.2201L66.125 40.7189ZM51.9231 58.8147C51.1765 58.0647 50.4231 57.3027 49.7238 56.5667C50.9014 55.3679 52.0343 54.2132 53.1836 53.043C53.9759 53.7282 54.7135 54.4768 55.3893 55.2815C55.2185 55.5966 52.3456 58.5416 51.9231 58.8157V58.8147ZM66.2032 65.0666C65.9769 65.3604 65.7107 65.6198 65.4128 65.8373C64.6443 66.3586 63.7846 66.7238 62.8805 66.9137C59.7085 67.6649 56.5565 67.6409 53.4401 66.6055C52.7936 66.401 52.1876 66.0818 51.6501 65.6626C50.7104 64.9104 50.6972 64.2053 51.6216 63.4507C52.2832 62.9386 53.038 62.5656 53.8423 62.3535C53.8984 62.3482 53.9549 62.3506 54.0103 62.3609C54.3598 62.8942 54.6419 63.4702 54.8501 64.0752C54.7011 64.1153 54.5857 64.1383 54.4754 64.1772C54.1306 64.296 53.9029 64.6354 53.9189 65.0059C53.9561 65.3928 54.2588 65.7022 54.6384 65.741C54.776 65.7528 54.9142 65.7564 55.0522 65.7523H62.279C62.417 65.7569 62.555 65.7526 62.6925 65.7398C63.0847 65.6906 63.3826 65.3474 63.3826 64.945C63.3826 64.5377 63.0778 64.1921 62.6805 64.1487C62.5197 64.1292 62.3572 64.1247 62.1593 64.111L63.1579 62.245C64.1471 62.5445 65.1047 62.9011 65.8876 63.6223C66.0115 63.739 66.1205 63.8712 66.2119 64.0157C66.4484 64.3248 66.4446 64.7626 66.2032 65.0676V65.0666Z" fill="white"/>
<path d="M69.0041 58.4909C68.5936 58.4482 68.1797 58.4496 67.7697 58.4957C67.3728 58.5449 67.0737 58.8965 67.0822 59.3038C67.1029 59.7269 67.4381 60.0694 67.8531 60.0917C68.0356 60.1068 68.2205 60.0943 68.4044 60.0943C68.5728 60.0943 68.7417 60.1032 68.9096 60.0926C69.3234 60.0833 69.6675 59.753 69.7017 59.3328C69.7309 58.9087 69.4193 58.5327 69.0041 58.4909Z" fill="white"/>
<path d="M63.0615 52.4785C62.6444 52.4417 62.2716 52.7607 62.2348 53.1857C62.1896 53.588 62.1875 53.9943 62.2282 54.397C62.2544 54.8088 62.594 55.1333 62.9989 55.1333C63.0257 55.1333 63.0526 55.1319 63.0794 55.129C63.4928 55.0925 63.8131 54.7337 63.8095 54.3108C63.8192 54.1397 63.8112 53.9679 63.8112 53.7963C63.8112 53.6247 63.8199 53.4526 63.8093 53.2817C63.8006 52.8598 63.4746 52.5094 63.0615 52.4785Z" fill="white"/>
<path d="M67.125 54.2339C67.0287 54.2423 66.9354 54.2725 66.8521 54.3225C66.463 54.6688 66.0982 55.0422 65.7597 55.4399C65.5423 55.7149 65.6551 56.1272 65.9107 56.374C66.1625 56.6488 66.5824 56.6855 66.8763 56.4582C67.2169 56.1685 67.533 55.8503 67.8208 55.5064C68.0155 55.2702 68.0353 54.9294 67.8695 54.6712C67.724 54.393 67.4343 54.2229 67.125 54.2339Z" fill="white"/>
<path d="M87.1621 59.5459C87.1614 59.5459 87.1607 59.5459 87.16 59.5459C86.9414 59.5459 86.7617 59.729 86.7617 59.9517C86.7617 59.9717 86.7631 59.9913 86.766 60.011C86.766 60.012 86.766 60.0132 86.766 60.0141C86.766 60.2316 86.9414 60.4101 87.1546 60.4101C87.1628 60.4101 87.1713 60.4099 87.1795 60.4094C87.3908 60.3957 87.5576 60.2148 87.5576 59.999C87.5576 59.9889 87.5571 59.9786 87.5564 59.9683C87.5566 59.963 87.5566 59.9577 87.5566 59.9525C87.5566 59.7312 87.3793 59.5483 87.1621 59.5459Z" fill="white"/>
<path d="M30.9628 56.0558C31.1835 56.0558 31.367 55.8746 31.3736 55.6497C31.3512 55.445 31.1922 55.2816 30.9916 55.2568C30.9911 55.2568 30.9904 55.2568 30.9899 55.2568C30.7695 55.2568 30.5881 55.4416 30.5881 55.6663V55.6665C30.5957 55.8743 30.7591 56.044 30.9628 56.0558Z" fill="white"/>
<path d="M40.1463 81.1396C39.9261 81.1392 39.7429 81.3189 39.7346 81.5431C39.7584 81.7471 39.9155 81.9103 40.115 81.9386C40.3352 81.9362 40.5156 81.7516 40.5173 81.5272C40.5147 81.3192 40.3503 81.1476 40.1463 81.1396Z" fill="white"/>
<path d="M31.3777 64.442C31.3714 64.227 31.1962 64.0537 30.9851 64.0537C30.7694 64.0537 30.592 64.2344 30.592 64.454C30.592 64.4581 30.5923 64.4619 30.5923 64.466C30.5986 64.6811 30.7739 64.8543 30.9851 64.8543C31.2006 64.8543 31.378 64.6736 31.378 64.454C31.378 64.4499 31.3777 64.4461 31.3777 64.442Z" fill="white"/>
<path d="M79.2684 79.5771C79.0496 79.5937 78.8765 79.7787 78.8711 80.0024C78.8885 80.2103 79.0612 80.372 79.2658 80.3725C79.4707 80.3759 79.6441 80.2117 79.6558 80.0034C79.6639 79.7783 79.4891 79.5863 79.2684 79.5771Z" fill="white"/>
<path d="M80.7174 77.9367C80.5132 77.9307 80.3375 78.0896 80.3189 78.2967C80.3078 78.5208 80.4762 78.7157 80.6957 78.733C80.8983 78.7232 81.0678 78.5693 81.101 78.3656C81.1072 78.1421 80.9364 77.9511 80.7174 77.9367Z" fill="white"/>
<path d="M43.5126 36.2694C43.7156 36.2562 43.8804 36.092 43.8981 35.8854C43.8925 35.6615 43.7158 35.4779 43.4963 35.4678C43.2938 35.4834 43.131 35.649 43.1155 35.8554C43.1155 35.8592 43.1152 35.8628 43.1152 35.8666C43.1152 36.0877 43.2938 36.2694 43.5104 36.2694C43.5111 36.2694 43.5119 36.2694 43.5126 36.2694Z" fill="white"/>
<path d="M47.334 85.9295C47.1303 85.9453 46.973 86.1251 46.9807 86.3332C46.9932 86.54 47.1557 86.7076 47.3588 86.7224C47.5773 86.7112 47.754 86.5302 47.7636 86.3072C47.7448 86.0848 47.5528 85.9158 47.334 85.9295Z" fill="white"/>
<path d="M72.4003 84.9209C72.1916 84.9305 72.0251 85.1081 72.0251 85.3207C72.0251 85.5274 72.182 85.7016 72.3838 85.7196C72.6045 85.7283 72.7946 85.5545 72.8104 85.3301C72.8002 85.1064 72.6201 84.9267 72.4003 84.9209Z" fill="white"/>
<path d="M53.569 87.898C53.3646 87.8868 53.1842 88.0396 53.1576 88.2465C53.1555 88.2636 53.1543 88.2808 53.1543 88.2979C53.1543 88.5177 53.3319 88.6984 53.5474 88.6984C53.7631 88.6984 53.9405 88.5177 53.9405 88.2979C53.9405 88.0864 53.7763 87.9096 53.569 87.898Z" fill="white"/>
<path d="M49.3079 33.3394C49.508 33.3142 49.6682 33.1551 49.6979 32.9518C49.696 32.7272 49.5165 32.5424 49.2963 32.5381C49.0858 32.5414 48.9141 32.7188 48.9141 32.9336C48.9141 32.9434 48.9145 32.953 48.9152 32.9629C48.9386 33.1681 49.1053 33.3279 49.3079 33.3394Z" fill="white"/>
<path d="M59.9089 31.6422C60.1291 31.64 60.309 31.455 60.3093 31.2306C60.3032 31.0158 60.1282 30.8428 59.9174 30.8428C59.9082 30.8428 59.8992 30.843 59.89 30.8437C59.6887 30.8697 59.5342 31.0422 59.5273 31.2488C59.5495 31.4536 59.7082 31.6172 59.9089 31.6422Z" fill="white"/>
<path d="M33.6125 72.421C33.3907 72.4171 33.2029 72.5954 33.1914 72.8213C33.2044 73.0298 33.3645 73.2 33.5682 73.2221C33.573 73.2223 33.5777 73.2223 33.5824 73.2223C33.7983 73.2223 33.9762 73.0411 33.9762 72.821C33.9762 72.6125 33.8165 72.437 33.6125 72.421Z" fill="white"/>
<path d="M60.0112 88.3818C59.8079 88.3941 59.6405 88.5539 59.6153 88.7598C59.612 88.9842 59.7879 89.1726 60.0079 89.1808C60.2123 89.1808 60.3843 89.0183 60.4 88.8107C60.404 88.5861 60.2312 88.3955 60.0112 88.3818Z" fill="white"/>
<path d="M64.2412 32.1368C64.4442 32.1174 64.6051 31.9484 64.618 31.741C64.6105 31.5152 64.4256 31.334 64.204 31.335C64 31.3508 63.8389 31.5234 63.834 31.7319C63.834 31.7326 63.834 31.7331 63.834 31.7338C63.834 31.9549 64.0125 32.137 64.2297 32.137C64.2334 32.137 64.2374 32.1368 64.2412 32.1368Z" fill="white"/>
<path d="M85.1333 70.3896C84.9134 70.3952 84.7351 70.5807 84.7344 70.8048C84.7358 71.0134 84.9011 71.1855 85.1056 71.1917C85.326 71.1932 85.5095 71.0115 85.5142 70.7868C85.4906 70.5824 85.3335 70.4184 85.1333 70.3896Z" fill="white"/>
<path d="M86.6797 57.7162C86.6844 57.925 86.8469 58.0978 87.0513 58.1112C87.272 58.1134 87.4579 57.9358 87.4694 57.7111C87.456 57.5038 87.297 57.3343 87.0942 57.3115C86.8733 57.3115 86.6891 57.4913 86.6797 57.7162Z" fill="white"/>
<path d="M74.3382 83.7936C74.3165 83.79 74.2948 83.7881 74.2729 83.7881C74.0567 83.7881 73.8789 83.9693 73.8789 84.1896C73.8789 84.385 74.0188 84.5532 74.2077 84.5856C74.2294 84.5892 74.251 84.5911 74.2729 84.5911C74.4891 84.5911 74.667 84.4099 74.667 84.1896C74.667 83.9942 74.5271 83.826 74.3382 83.7936Z" fill="white"/>
<path d="M87.075 61.8193C86.8724 61.833 86.7066 61.9931 86.6821 62.1983C86.6816 62.2053 86.6816 62.2124 86.6816 62.2194C86.6816 62.4388 86.8588 62.6195 87.0743 62.6195C87.2895 62.6195 87.4669 62.4388 87.4669 62.2194C87.4669 62.0003 87.29 61.8198 87.075 61.8193Z" fill="white"/>
<path d="M82.0219 76.1787C82.0209 76.1787 82.02 76.1787 82.019 76.1787C81.8028 76.1787 81.625 76.3599 81.625 76.5802C81.625 76.7993 81.8012 76.9801 82.0162 76.9817C82.2202 76.9748 82.3895 76.814 82.4107 76.6073C82.4138 76.3832 82.2414 76.1934 82.0219 76.1787Z" fill="white"/>
<path d="M45.4245 84.9287C45.2177 84.94 45.0505 85.1104 45.0392 85.3211C45.0342 85.5328 45.197 85.713 45.4045 85.7257C45.408 85.7257 45.4115 85.726 45.4151 85.726C45.6357 85.726 45.8178 85.5426 45.8206 85.3177C45.7957 85.1097 45.6294 84.9465 45.4245 84.9287Z" fill="white"/>
<path d="M68.4746 86.7178C68.2718 86.7295 68.1048 86.8891 68.0803 87.0946C68.0801 87.0987 68.0801 87.1025 68.0801 87.1066C68.0801 87.3267 68.2579 87.5076 68.4736 87.5076C68.675 87.5076 68.8453 87.3504 68.8653 87.1464C68.8653 86.9225 68.6936 86.7343 68.4746 86.7178Z" fill="white"/>
<path d="M64.3098 87.8975C64.3079 87.8975 64.306 87.8975 64.3042 87.8975C64.0912 87.8975 63.916 88.076 63.916 88.293C63.916 88.2985 63.916 88.3038 63.9163 88.3093C63.9306 88.5157 64.0936 88.6815 64.2962 88.6957C64.5152 88.6834 64.6904 88.4998 64.6965 88.2764C64.6796 88.07 64.5131 87.9066 64.3098 87.8975Z" fill="white"/>
<path d="M53.4732 32.1351C53.6776 32.1322 53.8474 31.9676 53.8604 31.7598C53.8611 31.5344 53.6852 31.3458 53.4642 31.335C53.2617 31.353 53.0978 31.515 53.0742 31.7209C53.0742 31.723 53.0742 31.725 53.0742 31.7271C53.0742 31.9503 53.2542 32.1344 53.4732 32.1351Z" fill="white"/>
<path d="M70.3979 34.1052C70.6179 34.098 70.7955 33.9122 70.7969 33.6878C70.7922 33.4713 70.616 33.2959 70.4033 33.2959C70.1876 33.2959 70.0098 33.4769 70.0098 33.6969C70.0098 33.7056 70.0102 33.7145 70.0107 33.7231C70.0279 33.9302 70.1942 34.0941 70.3979 34.1052Z" fill="white"/>
<path d="M45.3204 35.1161C45.3315 35.1171 45.3423 35.1176 45.3534 35.1176C45.5628 35.1176 45.7385 34.9503 45.7528 34.7374C45.7531 34.7314 45.7533 34.7254 45.7533 34.7192C45.7533 34.4998 45.5762 34.3193 45.3609 34.3193C45.1523 34.3193 44.9782 34.4888 44.9688 34.7012C44.9662 34.9092 45.1181 35.0883 45.3204 35.1161Z" fill="white"/>
<path d="M41.7458 37.5529C41.9479 37.5361 42.112 37.376 42.1375 37.1711C42.1389 36.9467 41.9601 36.7604 41.7399 36.7568C41.5357 36.7554 41.3652 36.922 41.3577 37.1298C41.3574 37.1344 41.3574 37.1392 41.3574 37.1437C41.3574 37.3631 41.5305 37.5455 41.7458 37.5529Z" fill="white"/>
<path d="M34.5883 45.7471C34.8031 45.7452 34.9788 45.5645 34.9788 45.3456C34.9788 45.1303 34.809 44.9515 34.598 44.9443C34.5963 44.9443 34.5947 44.9443 34.593 44.9443C34.377 44.9443 34.1992 45.1255 34.1992 45.3456C34.1992 45.564 34.374 45.7445 34.5883 45.7471Z" fill="white"/>
<path d="M33.5469 47.6843C33.7666 47.6788 33.9468 47.4988 33.9569 47.2751C33.9496 47.0615 33.7754 46.8896 33.5655 46.8896C33.3507 46.8896 33.1738 47.0699 33.1738 47.2888C33.1738 47.2892 33.1738 47.2897 33.1738 47.2902C33.1825 47.4978 33.3436 47.668 33.5469 47.6843Z" fill="white"/>
<path d="M32.6839 49.6881C32.8872 49.6824 33.0535 49.5146 33.0608 49.3075C33.0636 49.0831 32.8862 48.8954 32.6663 48.8896C32.4654 48.9136 32.3052 49.0749 32.2793 49.2794C32.2812 49.5043 32.4632 49.6881 32.6839 49.6881Z" fill="white"/>
<path d="M31.3388 53.9007C31.3499 53.9017 31.3612 53.9022 31.3723 53.9022C31.5814 53.9022 31.7562 53.7327 31.7665 53.5199C31.7665 53.516 31.7668 53.5124 31.7668 53.5086C31.7668 53.2871 31.5897 53.1039 31.3723 53.1006C31.1688 53.115 31.0039 53.2789 30.9844 53.4858C30.9856 53.6934 31.137 53.871 31.3388 53.9007Z" fill="white"/>
<path d="M86.4219 55.5332C86.4355 55.7557 86.6148 55.9333 86.8333 55.9412C87.0528 55.9244 87.2203 55.7276 87.2059 55.5039C87.1864 55.2971 87.0095 55.1394 86.8055 55.1478C86.6035 55.1639 86.4405 55.3275 86.4219 55.5332Z" fill="white"/>
<path d="M86.0217 53.3713C86.0224 53.5936 86.2021 53.7762 86.4202 53.7762C86.4254 53.7762 86.4308 53.7762 86.436 53.776C86.6407 53.7462 86.794 53.565 86.7931 53.3543C86.7789 53.1433 86.602 52.9787 86.3945 52.9835C86.3922 52.9835 86.3898 52.9835 86.3875 52.9835C86.1866 52.9835 86.0215 53.1517 86.0215 53.3565C86.0215 53.3613 86.0215 53.3663 86.0217 53.3713Z" fill="white"/>
<path d="M83.2198 74.3506C83.0123 74.3475 82.8349 74.5095 82.8154 74.72C82.8147 74.7301 82.8142 74.7401 82.8142 74.7505C82.8142 74.9689 82.9906 75.1486 83.2049 75.1486C83.4171 75.1486 83.5926 74.9722 83.5957 74.756C83.5858 74.5457 83.4251 74.3725 83.2198 74.3506Z" fill="white"/>
<path d="M47.306 34.1396C47.5076 34.1273 47.6668 33.955 47.6668 33.7494C47.6668 33.5348 47.4937 33.3584 47.2831 33.3584C47.0827 33.3584 46.9143 33.5185 46.9004 33.7222C46.9004 33.7232 46.9004 33.7239 46.9004 33.7249C46.9004 33.9519 47.0832 34.1389 47.306 34.1396Z" fill="white"/>
<path d="M83.1779 45.6122C83.3814 45.5958 83.5404 45.4204 83.5404 45.2123C83.5404 44.997 83.3701 44.818 83.1588 44.8115C82.9468 44.8168 82.7754 44.9958 82.7754 45.2118C82.7754 45.4314 82.9527 45.6122 83.1682 45.6122C83.1715 45.6122 83.1748 45.6122 83.1779 45.6122Z" fill="white"/>
<path d="M35.7731 43.8653C35.9809 43.8598 36.1509 43.6887 36.1589 43.477C36.1504 43.255 35.9691 43.0771 35.751 43.0771C35.7458 43.0771 35.7404 43.0771 35.735 43.0774C35.5279 43.0968 35.3697 43.2799 35.3772 43.4919C35.3897 43.7031 35.5656 43.8689 35.7731 43.8653Z" fill="white"/>
<path d="M38.5073 40.4793C38.7117 40.482 38.8867 40.3233 38.9077 40.116C38.9185 39.8918 38.7503 39.6967 38.5308 39.6787C38.5292 39.6787 38.5275 39.6787 38.5259 39.6787C38.3102 39.6787 38.1328 39.8594 38.1328 40.0793C38.1328 40.2919 38.2989 40.4693 38.5073 40.4793Z" fill="white"/>
<path d="M37.1448 77.9678C37.1444 77.9678 37.1439 77.9678 37.1434 77.9678C36.9256 77.9678 36.7461 78.1506 36.7461 78.3726C36.7461 78.377 36.7461 78.381 36.7463 78.3854C36.7555 78.5954 36.9263 78.7638 37.1326 78.766C37.3384 78.753 37.5038 78.5831 37.5148 78.3734C37.5087 78.1638 37.3495 77.9894 37.1448 77.9678Z" fill="white"/>
<path d="M75.9592 37.4696C75.9655 37.4699 75.9719 37.4701 75.9783 37.4701C76.1935 37.4701 76.3704 37.2896 76.3704 37.0705C76.3704 36.8516 76.1942 36.6714 75.9794 36.6709C75.7684 36.6769 75.5979 36.8557 75.5979 37.0707C75.5979 37.2783 75.7562 37.4531 75.9592 37.4696Z" fill="white"/>
<path d="M41.8187 82.5542C41.8124 82.554 41.8063 82.5537 41.7999 82.5537C41.5823 82.5537 41.4028 82.7359 41.4021 82.9576C41.42 83.1671 41.5863 83.3342 41.7921 83.3495C41.9989 83.3407 42.1673 83.1715 42.1793 82.961C42.188 82.7493 42.0265 82.5667 41.8187 82.5542Z" fill="white"/>
<path d="M72.376 35.0776C72.5814 35.0589 72.7401 34.881 72.7394 34.671C72.727 34.4615 72.5546 34.2959 72.3485 34.2959C72.1386 34.2959 71.9643 34.4677 71.957 34.6813C71.961 34.9002 72.1389 35.0783 72.3539 35.0783C72.3612 35.0783 72.3687 35.0781 72.376 35.0776Z" fill="white"/>
<path d="M51.4624 87.4214C51.256 87.4106 51.074 87.5649 51.0471 87.7737C51.0391 88.0015 51.2155 88.1959 51.439 88.2057C51.6446 88.1949 51.8131 88.0305 51.8328 87.8217C51.8319 87.611 51.6689 87.4346 51.4624 87.4214Z" fill="white"/>
<path d="M30.6374 60.4574C30.6381 60.4574 30.6388 60.4574 30.6395 60.4574C30.8554 60.4574 31.0335 60.2762 31.0335 60.0559C31.0335 59.8461 30.8719 59.6697 30.6666 59.6553C30.4628 59.6529 30.2883 59.8091 30.2643 60.0153C30.2523 60.2395 30.4181 60.436 30.6374 60.4574Z" fill="white"/>
<path d="M66.3538 32.6075C66.5596 32.5897 66.7219 32.416 66.729 32.2055C66.7085 31.9965 66.5405 31.8318 66.3347 31.8193C66.1215 31.8215 65.9473 32.001 65.9473 32.2182C65.9473 32.2285 65.9477 32.2386 65.9484 32.2489C65.9645 32.4599 66.1465 32.6209 66.3538 32.6075Z" fill="white"/>
<path d="M55.6339 31.8114C55.8414 31.7944 56.0009 31.611 55.9926 31.3991C55.9853 31.1872 55.8099 31.018 55.6017 31.0226C55.3956 31.0324 55.2272 31.1987 55.2109 31.4082C55.222 31.6355 55.4107 31.8155 55.6339 31.8114Z" fill="white"/>
<path d="M57.7723 31.6427C57.9739 31.6237 58.1362 31.4615 58.1586 31.2563C58.1597 31.0312 57.9791 30.8447 57.7582 30.8428C57.554 30.8452 57.386 31.0146 57.3813 31.2227C57.3811 31.2287 57.3809 31.2349 57.3809 31.2409C57.3809 31.4603 57.557 31.641 57.7723 31.6427Z" fill="white"/>
<path d="M85.8449 51.6585C86.0493 51.6432 86.2093 51.4675 86.2093 51.259C86.2093 51.0454 86.0421 50.8675 85.8327 50.8584C85.6167 50.8663 85.4434 51.0494 85.4434 51.2698C85.4434 51.2767 85.4436 51.2834 85.4438 51.2904C85.462 51.5001 85.6384 51.6619 85.8449 51.6585Z" fill="white"/>
<path d="M85.8453 68.2959C85.6408 68.3024 85.4741 68.4716 85.4673 68.6799C85.4604 68.8873 85.6109 69.0685 85.8128 69.0956C86.0332 69.1107 86.2271 68.9391 86.2431 68.7145C86.2431 68.4898 86.0657 68.3031 85.8453 68.2959Z" fill="white"/>
<path d="M85.0605 49.5854C85.0671 49.5856 85.0735 49.5858 85.0801 49.5858C85.2956 49.5858 85.4727 49.4054 85.4727 49.1858C85.4727 49.1848 85.4727 49.1805 85.4727 49.1793C85.4727 48.9647 85.2993 48.7881 85.0888 48.7881C84.8832 48.7881 84.712 48.9566 84.7051 49.1661C84.7018 49.3766 84.8556 49.558 85.0605 49.5854Z" fill="white"/>
<path d="M77.6813 38.8676C77.8855 38.8398 78.0383 38.6583 78.0346 38.4486C78.0296 38.2369 77.856 38.0665 77.6483 38.0694C77.4425 38.0766 77.2757 38.2489 77.2715 38.4589C77.2715 38.461 77.2715 38.463 77.2715 38.4651C77.2715 38.6862 77.4498 38.8678 77.6667 38.8678C77.6716 38.8678 77.6763 38.8678 77.6813 38.8676Z" fill="white"/>
<path d="M81.9714 43.7747C82.1784 43.7802 82.3538 43.6124 82.3611 43.4015C82.3619 43.3919 82.3621 43.3823 82.3621 43.3727C82.3621 43.1591 82.1899 42.9834 81.9803 42.9834C81.7815 42.9834 81.6143 43.1416 81.5995 43.3436C81.5971 43.3614 81.5957 43.3792 81.5957 43.3969C81.5957 43.6043 81.7632 43.7747 81.9664 43.7747C81.9681 43.7747 81.9697 43.7747 81.9714 43.7747Z" fill="white"/>
<path d="M37.0649 42.132C37.0656 42.132 37.0663 42.132 37.067 42.132C37.2773 42.132 37.4505 41.9556 37.4505 41.7413C37.4505 41.527 37.2773 41.3506 37.067 41.3506C36.8581 41.3506 36.6857 41.5243 36.6836 41.7372C36.6933 41.9475 36.8586 42.1188 37.0649 42.132Z" fill="white"/>
<path d="M79.2058 40.3896C79.4138 40.396 79.5902 40.2276 79.5972 40.0157C79.6041 39.8049 79.451 39.6211 79.2458 39.5933C79.2397 39.593 79.2336 39.5928 79.2275 39.5928C79.0105 39.5928 78.832 39.7747 78.832 39.9957C78.832 39.9964 78.832 39.9972 78.832 39.9979C78.832 40.0005 78.832 40.0029 78.832 40.0056C78.832 40.2151 79.0002 40.3879 79.2058 40.3896Z" fill="white"/>
<path d="M80.6664 42.0212C80.8737 42.0214 81.0444 41.8484 81.0451 41.6372C81.0454 41.6307 81.0456 41.6245 81.0456 41.618C81.0456 41.4128 80.8803 41.2436 80.6789 41.2427C80.6681 41.2417 80.6572 41.2412 80.6466 41.2412C80.4366 41.2412 80.2637 41.4174 80.2637 41.6314C80.2637 41.8455 80.4366 42.0217 80.6466 42.0217C80.6532 42.0217 80.6598 42.0214 80.6664 42.0212Z" fill="white"/>
<path d="M84.2386 72.4053C84.0314 72.4034 83.8562 72.568 83.8416 72.7787C83.8418 73.0014 84.0215 73.1846 84.2401 73.1846C84.2443 73.1846 84.2488 73.1846 84.253 73.1843C84.4605 73.1776 84.6268 72.9995 84.6228 72.7879C84.6157 72.5774 84.4452 72.4077 84.2386 72.4053Z" fill="white"/>
<path d="M68.4199 33.2549C68.6231 33.2457 68.7856 33.0729 68.7856 32.8656C68.7856 32.6517 68.613 32.4756 68.4032 32.4756C68.3975 32.4756 68.3921 32.4758 68.3864 32.4761C68.1808 32.4849 68.0124 32.652 67.9983 32.8613C68.0002 33.0785 68.1759 33.2561 68.389 33.2561C68.3994 33.2561 68.4095 33.2556 68.4199 33.2549Z" fill="white"/>
<path d="M51.3483 32.6584C51.5693 32.6584 51.7508 32.4734 51.7508 32.2483V32.2478C51.7461 32.0402 51.5796 31.8708 51.3759 31.8664C51.371 31.8662 51.3658 31.8662 51.3608 31.8662C51.1451 31.8662 50.9675 32.0467 50.9668 32.2665C50.9889 32.471 51.1479 32.6342 51.3483 32.6584Z" fill="white"/>
<path d="M86.4253 66.1943C86.2193 66.2001 86.0527 66.3746 86.0527 66.5846C86.0527 66.7989 86.2258 66.975 86.4359 66.975C86.6463 66.975 86.8191 66.7989 86.8191 66.5846C86.8191 66.5826 86.8191 66.5805 86.8191 66.5783C86.8024 66.3681 86.6321 66.202 86.4253 66.1943Z" fill="white"/>
<path d="M66.3831 87.4057C66.1775 87.4206 66.0188 87.6021 66.0277 87.8118C66.0277 88.0173 66.1937 88.1865 66.3953 88.1865C66.4001 88.1865 66.4048 88.1865 66.4095 88.1862C66.6158 88.1867 66.787 88.0168 66.7922 87.8068C66.7922 87.8049 66.7922 87.8027 66.7922 87.8008C66.7922 87.5838 66.617 87.4053 66.4041 87.4053C66.397 87.4053 66.3902 87.4053 66.3831 87.4057Z" fill="white"/>
<path d="M38.5241 79.6108C38.3256 79.6254 38.1699 79.7961 38.1699 79.9991C38.1699 80.2127 38.3423 80.3884 38.5519 80.3884C38.5701 80.3884 38.5884 80.387 38.6066 80.3843C38.8002 80.3639 38.9493 80.1957 38.9493 79.9974C38.9493 79.7838 38.7769 79.6084 38.5675 79.6084C38.5531 79.6084 38.5385 79.6091 38.5241 79.6108Z" fill="white"/>
<path d="M55.6754 88.2334C55.4691 88.2461 55.303 88.4158 55.291 88.626C55.291 88.6282 55.291 88.6301 55.291 88.6323C55.291 88.8509 55.4677 89.0311 55.6825 89.0311C55.8973 89.0311 56.0739 88.8509 56.0739 88.6323C56.0739 88.4134 55.8973 88.2334 55.6825 88.2334C55.6801 88.2334 55.6777 88.2334 55.6754 88.2334Z" fill="white"/>
<path d="M77.7202 81.1245C77.5125 81.114 77.3311 81.2748 77.3125 81.486C77.3125 81.4886 77.3125 81.4915 77.3125 81.4941C77.3125 81.718 77.4931 81.9021 77.7129 81.9021C77.7141 81.9021 77.7152 81.9021 77.7164 81.9021C77.9241 81.899 78.0935 81.7238 78.0933 81.5121C78.0935 81.5083 78.0935 81.5042 78.0935 81.5004C78.0935 81.2942 77.927 81.1245 77.7247 81.1245C77.7232 81.1245 77.7216 81.1245 77.7202 81.1245Z" fill="white"/>
<path d="M57.8574 88.3818C57.6407 88.3828 57.4629 88.565 57.4629 88.7858C57.4629 88.793 57.4629 88.8004 57.4634 88.8076C57.4756 89.0128 57.6447 89.175 57.8466 89.175C58.0571 89.175 58.2305 88.9984 58.2305 88.7838V88.7836C58.2246 88.5734 58.063 88.3994 57.8574 88.3818Z" fill="white"/>
<path d="M76.0149 82.5391C75.8079 82.5494 75.643 82.7255 75.6426 82.9367C75.6555 83.1465 75.8249 83.314 76.0312 83.3207C76.2382 83.3188 76.4106 83.1518 76.4231 82.9413C76.4233 82.9367 76.4233 82.9319 76.4233 82.9274C76.4233 82.7138 76.2509 82.5381 76.0413 82.5381C76.0326 82.5381 76.0236 82.5383 76.0149 82.5391Z" fill="white"/>
<path d="M43.604 83.812C43.5972 83.8115 43.5904 83.8115 43.5835 83.8115C43.3687 83.8115 43.1919 83.9915 43.1919 84.2106C43.1919 84.2126 43.1919 84.2145 43.1919 84.2164C43.1916 84.2222 43.1914 84.2279 43.1914 84.2337C43.1914 84.4394 43.3574 84.6086 43.5593 84.6086C43.5598 84.6086 43.5602 84.6086 43.5607 84.6086C43.5656 84.6088 43.5704 84.6088 43.5753 84.6088C43.7781 84.6088 43.9462 84.442 43.9519 84.2354C43.9604 84.0251 43.8087 83.8403 43.604 83.812Z" fill="white"/>
<path d="M40.0889 38.9435C40.295 38.9255 40.4551 38.7477 40.4551 38.537C40.4532 38.3227 40.2797 38.1475 40.0693 38.1475C40.0566 38.1475 40.0439 38.1482 40.0312 38.1494C39.8388 38.1664 39.6895 38.3323 39.6895 38.5291C39.6895 38.543 39.6902 38.5567 39.6916 38.5703C39.7076 38.7803 39.8821 38.9442 40.0889 38.9435Z" fill="white"/>
<path d="M30.6954 58.2479C30.7079 58.2491 30.7206 58.2499 30.7331 58.2499C30.9406 58.2499 31.1123 58.0773 31.1149 57.8659C31.1222 57.6568 30.9609 57.4783 30.756 57.4684C30.5365 57.4557 30.3452 57.6288 30.332 57.8524C30.3337 58.0593 30.4929 58.2326 30.6954 58.2479Z" fill="white"/>
<path d="M74.2308 36.1945C74.4324 36.1883 74.5949 36.0176 74.5949 35.8122C74.5949 35.8057 74.5947 35.7995 74.5944 35.7932C74.589 35.5813 74.415 35.4104 74.2068 35.4133C74.2035 35.4133 74.1999 35.4131 74.1966 35.4131C73.9858 35.4131 73.8125 35.59 73.8125 35.8045C73.8125 36.0193 73.9858 36.196 74.1966 36.196C74.2082 36.196 74.2195 36.1955 74.2308 36.1945Z" fill="white"/>
<path d="M86.8333 64.0146C86.627 64.0242 86.46 64.1951 86.4516 64.4056C86.4421 64.617 86.6044 64.7992 86.8119 64.8098C86.8216 64.8105 86.8315 64.811 86.8411 64.811C87.0479 64.811 87.2179 64.6377 87.2179 64.427C87.2179 64.42 87.2179 64.4128 87.2175 64.4058C87.2052 64.1961 87.0392 64.0271 86.8333 64.0146Z" fill="white"/>
<path d="M70.4985 85.914C70.4896 85.9133 70.4804 85.9131 70.4715 85.9131C70.2633 85.9131 70.0918 86.0878 70.0918 86.3C70.0918 86.3062 70.092 86.3124 70.0923 86.3187C70.1005 86.5306 70.2757 86.6993 70.4837 86.696C70.4861 86.696 70.4886 86.696 70.491 86.696C70.7015 86.696 70.8749 86.5196 70.8749 86.305C70.8749 86.0933 70.7063 85.9181 70.4985 85.914Z" fill="white"/>
<path d="M31.776 66.6021C31.7692 66.3936 31.5989 66.2256 31.394 66.2256C31.1858 66.2256 31.0141 66.3989 31.0117 66.6108C31.0138 66.8352 31.1954 67.0188 31.4159 67.0188C31.4187 67.0188 31.4213 67.0188 31.4241 67.0188C31.6314 66.9998 31.7885 66.8138 31.776 66.6021Z" fill="white"/>
<path d="M31.1201 62.2658C31.1154 62.0542 30.9437 61.8826 30.736 61.8818C30.5172 61.8866 30.3398 62.0714 30.3398 62.2944C30.3398 62.2982 30.3401 62.3021 30.3401 62.3059C30.3646 62.5157 30.5473 62.6719 30.7544 62.6602C30.9557 62.659 31.1206 62.49 31.1206 62.2848C31.1206 62.2786 31.1204 62.2721 31.1201 62.2658Z" fill="white"/>
<path d="M31.9949 68.3674C31.9854 68.3667 31.9758 68.3662 31.9664 68.3662C31.7586 68.3662 31.5879 68.5404 31.5879 68.7519C31.5879 68.7586 31.5881 68.7651 31.5884 68.7718C31.5902 68.9792 31.7582 69.1486 31.9617 69.1486C31.9661 69.1486 31.9708 69.1486 31.9753 69.1484C32.1835 69.152 32.358 68.9813 32.3632 68.7692C32.3677 68.557 32.2028 68.3773 31.9949 68.3674Z" fill="white"/>
<path d="M35.792 76.218C35.586 76.2343 35.4268 76.4155 35.4338 76.626C35.4362 76.8341 35.6046 77.0038 35.8088 77.0038C35.8116 77.0038 35.8142 77.0038 35.817 77.0038C35.821 77.004 35.825 77.004 35.829 77.004C36.0311 77.004 36.1971 76.8346 36.1971 76.6289C36.1971 76.6275 36.1971 76.6263 36.1971 76.6248C36.1971 76.6217 36.1971 76.6183 36.1971 76.6152C36.1971 76.3971 36.0212 76.2178 35.8071 76.2178C35.8022 76.2178 35.797 76.2178 35.792 76.218Z" fill="white"/>
<path d="M32.7215 70.4223C32.7107 70.4214 32.6996 70.4209 32.6886 70.4209C32.4933 70.4209 32.3311 70.5815 32.3254 70.7804C32.3245 70.791 32.3242 70.8013 32.3242 70.8119C32.3242 71.0257 32.4969 71.2016 32.7067 71.2016C32.9166 71.2016 33.0892 71.0257 33.0892 70.8119C33.0892 70.6038 32.9255 70.4305 32.7215 70.4223Z" fill="white"/>
<path d="M84.2263 47.5437C84.4319 47.5242 84.5918 47.3476 84.5942 47.1371C84.5796 46.9259 84.4032 46.7613 84.1955 46.7649C84.191 46.7647 84.1863 46.7646 84.1818 46.7646C83.9792 46.7646 83.8125 46.9346 83.8125 47.141C83.8125 47.1422 83.8125 47.1431 83.8125 47.1443C83.8125 47.1472 83.8125 47.1503 83.8125 47.1532C83.8125 47.368 83.9858 47.5449 84.1969 47.5449C84.2065 47.5449 84.2164 47.5444 84.2263 47.5437Z" fill="white"/>
<path d="M31.9369 51.7534C31.9449 51.7539 31.9527 51.7542 31.9607 51.7542C32.1644 51.7542 32.3323 51.5833 32.3323 51.3754C32.3323 51.3649 32.3319 51.3541 32.3309 51.3435C32.3213 51.1335 32.1449 50.9682 31.9388 50.9758C31.7344 50.9761 31.5664 51.1474 31.5664 51.3558C31.5664 51.3584 31.5664 51.3608 31.5664 51.3634C31.5641 51.5737 31.7306 51.7491 31.9369 51.7534Z" fill="white"/>
<path d="M34.6155 74.3826C34.4151 74.3826 34.25 74.5508 34.25 74.755C34.25 74.7606 34.2502 74.7661 34.2505 74.7716C34.2507 74.9837 34.4222 75.158 34.6304 75.158C34.8388 75.158 35.0103 74.9833 35.0103 74.7709C35.0103 74.762 35.01 74.7529 35.0093 74.7438C35.0008 74.5426 34.8362 74.3818 34.6386 74.3818C34.6311 74.3818 34.6233 74.3821 34.6155 74.3826Z" fill="white"/>
<path d="M49.3867 86.7568C49.3846 86.7568 49.3827 86.7568 49.3806 86.7568C49.1717 86.7568 49 86.9318 49 87.1447C49 87.156 49.0005 87.1672 49.0014 87.1785C49.0101 87.378 49.1736 87.5373 49.3693 87.5373C49.3792 87.5373 49.3888 87.5368 49.3985 87.5361C49.6046 87.5289 49.7692 87.3518 49.765 87.1416C49.7607 86.9318 49.5926 86.7607 49.3867 86.7568Z" fill="white"/>
<path d="M62.1095 31.7805C62.3142 31.762 62.4713 31.5818 62.4651 31.3725C62.4552 31.163 62.2819 30.9964 62.0761 30.9991C62.0749 30.9991 62.0737 30.9991 62.0725 30.9991C61.8676 30.9991 61.6992 31.1707 61.6992 31.3795C61.6992 31.3802 61.6992 31.3809 61.6992 31.3816C61.6992 31.3838 61.6992 31.3859 61.6992 31.3878C61.6992 31.6036 61.8735 31.7812 62.0852 31.7812C62.0932 31.7812 62.1015 31.781 62.1095 31.7805Z" fill="white"/>
<path d="M62.1818 88.2336C61.9755 88.2264 61.7986 88.3901 61.7859 88.6001C61.7854 88.6085 61.7852 88.6167 61.7852 88.6251C61.7852 88.8399 61.9585 89.0167 62.1695 89.0167C62.3803 89.0167 62.5539 88.8399 62.5539 88.6251C62.5539 88.4151 62.3879 88.2403 62.1818 88.2336Z" fill="white"/>
</svg>
