<svg width="124" height="122" viewBox="0 0 124 122" fill="none" xmlns="http://www.w3.org/2000/svg">
<path d="M62.0582 92.0183C79.5921 91.9841 93.7633 78.1396 93.7103 61.0956C93.6574 44.0516 79.4005 30.2624 61.8666 30.2966C44.3327 30.3307 30.1615 44.1753 30.2145 61.2193C30.2674 78.2632 44.5243 92.0524 62.0582 92.0183Z" fill="url(#paint0_linear_1_2270)"/>
<path d="M61.8567 21.257C67.5796 21.2458 72.205 16.7271 72.1878 11.1641C72.1706 5.60107 67.5173 1.10043 61.7944 1.1116C56.0715 1.12278 51.4461 5.64153 51.4633 11.2045C51.4805 16.7675 56.1338 21.2682 61.8567 21.257Z" fill="white"/>
<path d="M62.1238 121.124C67.8467 121.113 72.4721 116.594 72.4549 111.031C72.4377 105.468 67.7844 100.968 62.0615 100.979C56.3386 100.99 51.7132 105.509 51.7304 111.072C51.7476 116.635 56.4009 121.135 62.1238 121.124Z" fill="white"/>
<path d="M32.8462 33.002C36.8841 29.0604 36.8669 22.685 32.808 18.7621C28.7491 14.8392 22.1854 14.8543 18.1475 18.7958C14.1097 22.7374 14.1268 29.1128 18.1858 33.0357C22.2447 36.9586 28.8084 36.9435 32.8462 33.002Z" fill="white"/>
<path d="M105.775 103.463C109.813 99.5214 109.796 93.146 105.737 89.2231C101.678 85.3001 95.1145 85.3153 91.0767 89.2568C87.0389 93.1983 87.056 99.5737 91.115 103.497C95.1739 107.42 101.738 107.404 105.775 103.463Z" fill="white"/>
<path d="M10.559 71.3192C16.2819 71.308 20.9073 66.7892 20.8901 61.2262C20.8728 55.6632 16.2195 51.1627 10.4966 51.174C4.77365 51.1852 0.148244 55.704 0.165473 61.267C0.182702 66.8299 4.83604 71.3305 10.559 71.3192Z" fill="white"/>
<path d="M113.432 71.0929C119.155 71.0818 123.781 66.563 123.763 61C123.746 55.437 119.093 50.9364 113.37 50.9475C107.647 50.9587 103.022 55.4775 103.039 61.0405C103.056 66.6035 107.709 71.1041 113.432 71.0929Z" fill="white"/>
<path d="M105.594 32.8301C109.632 28.8886 109.615 22.5132 105.556 18.5902C101.497 14.6673 94.9334 14.6824 90.8956 18.624C86.8577 22.5655 86.8749 28.9409 90.9338 32.8638C94.9928 36.7867 101.556 36.7717 105.594 32.8301Z" fill="white"/>
<path d="M33.0298 103.721C37.0677 99.7792 37.0505 93.4038 32.9916 89.4809C28.9327 85.558 22.369 85.573 18.3311 89.5146C14.2933 93.4561 14.3104 99.8315 18.3694 103.754C22.4283 107.677 28.992 107.662 33.0298 103.721Z" fill="white"/>
<defs>
<linearGradient id="paint0_linear_1_2270" x1="100.537" y1="11.9565" x2="-0.192319" y2="39.9371" gradientUnits="userSpaceOnUse">
<stop stop-color="white"/>
<stop offset="0.523958" stop-color="#D795FF"/>
<stop offset="1" stop-color="#7BC2FE"/>
</linearGradient>
</defs>
</svg>
