<svg width="539" height="271" viewBox="0 0 539 271" fill="none" xmlns="http://www.w3.org/2000/svg">
<rect x="36.0581" y="0.514648" width="470.845" height="269" rx="19.5" stroke="url(#paint0_linear_1_2471)" stroke-dasharray="5 5"/>
<rect x="61.7725" y="27.978" width="419.417" height="214.078" rx="20" fill="#9945FF"/>
<path d="M453.995 108.631C461.778 113.376 471.293 157.618 477.46 193.033C479.556 205.071 470.209 215.938 457.991 215.961L70.6436 216.707C68.7984 216.711 67.3966 214.877 68.1524 213.194C68.3134 212.835 68.4029 212.525 68.4659 212.137C68.9148 209.376 70.501 206.326 74.9641 198.944C75.8323 197.508 76.8677 196.164 78.1478 195.079C87.5462 187.114 95.8139 188.805 98.9261 190.8C99.8621 191.452 102.299 193.119 105.56 195.276C107.075 196.278 108.733 197.24 110.546 197.144C115.086 196.904 118.111 192.291 119.172 189.604C120.201 187.477 123.289 179.796 127.407 166.081C130.209 154.416 134.533 155.192 137.171 157.81C138.082 158.714 138.84 159.764 139.747 160.671C140.27 161.193 140.896 161.816 141.604 162.515C143.985 164.867 147.455 166.957 149.909 164.682C153.035 161.785 155.09 155.529 155.888 151.728C158.29 142.559 163.849 122.226 166.869 114.252C170.447 107.323 175.148 109.326 177.82 111.888C178.578 112.615 179.133 113.514 179.643 114.433C183.203 120.84 189.623 132.328 191.918 136.18C194.389 140.326 197.294 140.3 198.438 139.768C199.288 139.329 201.309 138.038 203.533 135.984C204.509 135.084 205.473 134.087 206.753 133.734C208.309 133.305 209.796 133.614 210.838 134.055C211.523 134.345 212.083 134.852 212.605 135.381C213.153 135.936 213.846 136.636 214.585 137.381C216.077 138.883 218.454 140.371 220.019 138.945C220.463 138.54 221.007 138.002 221.342 137.502C223.353 134.495 226.501 123.486 227.948 117.84C228.414 116.109 229.714 112.016 231.663 107.456C232.568 105.339 233.882 102.64 236.169 102.91C241.785 103.574 245.306 122.214 246.478 132.99C247.851 144.419 250.664 168.394 250.939 172.859C251.254 177.979 252.723 183.098 254.024 188.218C254.258 189.139 254.833 190.773 255.46 191.488C257.641 193.974 259.749 189.114 261.46 186.283C263.775 182.449 266.514 179.575 268.444 177.919C269.324 177.165 270.34 176.604 271.383 176.099C275.803 173.957 283.127 170.098 286.283 167.277C288.913 164.926 291.705 164.886 293.587 165.399C294.718 165.708 295.627 166.505 296.634 167.106C298.08 167.968 300.267 168.872 302.754 168.872C307.695 168.872 311.447 160.632 312.705 156.513C314.649 151.994 318.881 142.001 320.254 138.173C321.764 133.962 323.54 130.369 326.752 126.034C327.657 124.812 328.704 123.649 330.068 122.979C334.4 120.851 337.57 123.931 340.083 127.081C341.295 128.601 342.604 130.306 344.528 130.575C347.121 130.938 349.047 128.686 350.749 125.612C351.255 124.696 351.799 123.8 352.261 122.861C355.061 117.167 359.213 101.11 361.088 93.1218C362.003 90.1981 364.863 81.6397 368.98 70.7955C374.745 60.2702 381.219 71.1942 383.736 77.9718C389.226 92.9889 400.687 123.98 402.609 127.807C405.011 132.592 406.383 132.99 410.501 132.99C414.226 133.261 420.19 126.475 423.869 121.489C425.052 119.887 426.32 118.204 428.215 117.592C428.319 117.558 428.424 117.527 428.529 117.5C430.249 117.052 431.55 118.651 432.89 119.82C435.86 122.414 438.119 121.058 438.982 119.834C441.274 117.273 445.741 112.596 448.925 110.148C450.419 109.001 452.387 107.651 453.995 108.631Z" fill="url(#paint1_linear_1_2471)"/>
<rect x="0.247803" y="49.335" width="261.361" height="110.117" rx="20" fill="white"/>
<path d="M171.283 116.489H190.3V112.289H177.766C179.495 105.398 190.084 103.891 190.084 96.2458C190.084 92.1541 187.275 89.1392 181.332 89.1392C177.658 89.1392 174.417 90.2159 172.256 91.2927L173.552 95.169C175.497 94.1999 177.766 93.3385 180.576 93.3385C182.737 93.3385 184.79 94.3076 184.79 96.7842C184.79 102.383 172.364 102.814 171.283 116.489ZM190.841 109.813H203.05V116.489H207.913V109.813H212.019V105.721H207.913V89.1392H204.347L190.841 106.583V109.813ZM196.351 105.937L203.266 96.6765C203.266 97.4302 203.05 99.7991 203.05 101.953V105.829H199.809C198.836 105.829 196.999 105.937 196.351 105.937Z" fill="#005893"/>
<path d="M33.1929 112.399V103.892H35.2459C37.0828 103.892 38.5955 104.108 39.676 104.754C40.7565 105.4 41.4048 106.477 41.4048 108.2C41.4048 111.107 39.676 112.399 35.57 112.399H33.1929ZM28.2226 116.491H35.462C43.5658 116.491 46.4832 112.937 46.4832 107.984C46.4832 104.646 45.0786 102.385 42.5934 101.093C40.6485 100.016 38.1633 99.6931 35.1378 99.6931H33.1929V93.2325H44.1061L45.4027 89.2485H28.1145V116.491H28.2226ZM49.8328 116.491H54.5871L60.746 107.661C61.9346 106.046 62.799 104.431 63.3392 103.569H63.4473C63.3392 104.754 63.2312 106.261 63.2312 107.769V116.383H68.0935V97.0012H63.3392L57.1803 105.831C56.0998 107.446 55.1273 109.061 54.5871 109.922H54.479C54.5871 108.738 54.6951 107.23 54.6951 105.723V97.1089H49.8328V116.491ZM76.4135 116.491H81.3838V101.093H87.2186L88.5152 97.0012H70.4706V101.093H76.4135V116.491ZM90.244 126.289H95.1064V116.491C96.0788 116.814 97.0513 116.921 98.1318 116.921C104.291 116.921 108.289 112.722 108.289 106.692C108.289 100.447 104.615 96.4628 97.5915 96.4628C94.8903 96.4628 92.297 97.0012 90.136 97.6473V126.289H90.244ZM95.1064 112.291V100.878C95.8627 100.662 96.511 100.555 97.3754 100.555C100.941 100.555 103.21 102.493 103.21 106.692C103.21 110.461 101.373 112.83 97.6996 112.83C96.7271 112.83 95.9708 112.614 95.1064 112.291ZM111.206 116.491H115.96L122.119 107.661C123.308 106.046 124.172 104.431 124.712 103.569H124.82C124.712 104.754 124.604 106.261 124.604 107.769V116.383H129.467V97.0012H124.712L118.553 105.831C117.473 107.446 116.501 109.061 115.96 109.922H115.852C115.96 108.738 116.068 107.23 116.068 105.723V97.1089H111.206V116.491ZM133.357 116.491H138.327V108.415H141.244C141.785 108.415 142.325 108.953 142.973 110.245L145.458 116.491H150.753L147.187 109.061C146.539 107.769 145.89 107.015 144.918 106.692V106.584C146.539 105.615 146.755 102.816 147.727 101.416C148.052 100.985 148.484 100.77 149.132 100.77C149.456 100.77 149.888 100.77 150.213 100.985V96.7859C149.672 96.5705 148.7 96.4628 148.16 96.4628C146.431 96.4628 145.35 97.1089 144.594 98.1856C142.973 100.555 142.973 104.646 140.596 104.646H138.327V97.0012H133.357V116.491ZM161.774 116.921C164.475 116.921 166.961 116.06 168.473 114.983L167.069 111.645C165.664 112.399 164.367 112.937 162.53 112.937C159.181 112.937 157.02 110.784 157.02 106.8C157.02 103.246 159.181 100.447 162.855 100.447C164.799 100.447 166.204 100.985 167.609 101.954V97.7549C166.528 97.1089 164.799 96.4628 162.314 96.4628C156.48 96.4628 151.941 100.77 151.941 106.907C151.941 112.507 155.399 116.921 161.774 116.921Z" fill="#0BBBEF"/>
<path d="M228.12 109.815C233.415 109.815 237.737 105.508 237.737 100.232C237.737 94.956 233.415 90.6489 228.12 90.6489C222.826 90.6489 218.504 94.956 218.504 100.232C218.612 105.508 222.826 109.815 228.12 109.815Z" stroke="#005893" stroke-width="1.769"/>
<path d="M234.171 100.23H228.876V94.9541H227.472V101.63H234.171V100.23Z" fill="#005893"/>
<path d="M317.98 159.171C317.98 148.125 326.935 139.171 337.98 139.171H518.174C529.22 139.171 538.174 148.125 538.174 159.171V201.307C538.174 212.353 529.22 221.307 518.174 221.307H337.98C326.935 221.307 317.98 212.353 317.98 201.307V159.171Z" fill="white"/>
<mask id="mask0_1_2471" style="mask-type:luminance" maskUnits="userSpaceOnUse" x="352" y="166" width="151" height="29">
<path d="M503 166.013H353V194.013H503V166.013Z" fill="white"/>
</mask>
<g mask="url(#mask0_1_2471)">
<path d="M376.37 184.296C376.824 184.296 377.006 184.817 377.006 185.947C376.959 186.717 376.709 187.465 376.279 188.119C375.709 188.997 375.004 189.788 374.187 190.464C373.342 191.172 372.392 191.757 371.369 192.202C370.436 192.646 369.41 192.883 368.368 192.897C367.004 192.897 366.186 191.768 365.731 189.509C365.095 190.552 364.186 191.42 363.095 192.028C361.799 192.739 360.313 193.072 358.821 192.984C358.048 193.003 357.277 192.885 356.548 192.636C355.812 192.347 355.134 191.935 354.548 191.42C354.041 190.919 353.639 190.329 353.366 189.682C353.106 189.046 352.982 188.367 353.002 187.684C353.002 183.601 354.457 180.386 357.276 178.041C358.226 177.162 359.378 176.508 360.64 176.129C361.699 175.815 362.804 175.668 363.913 175.695C364.89 175.679 365.857 175.887 366.732 176.303C367.095 175.608 367.459 175.26 367.914 175.26C368.393 175.252 368.866 175.372 369.278 175.608C369.724 175.787 370.127 176.053 370.459 176.39C371.126 176.909 371.55 177.658 371.642 178.475C371.187 179.431 370.641 180.386 370.096 181.342C369.824 182.891 369.732 184.465 369.823 186.033C369.823 188.032 370.096 189.074 370.641 189.074C371.187 189.074 372.914 187.858 375.369 185.338C375.824 184.557 376.188 184.296 376.37 184.296ZM358.548 186.468C358.548 188.292 359.276 189.248 360.731 189.248C361.53 189.225 362.308 188.994 362.98 188.581C363.653 188.168 364.195 187.587 364.549 186.902C364.89 186.282 365.194 185.644 365.459 184.991C365.426 182.655 365.67 180.324 366.186 178.041C364.147 178.434 362.279 179.403 360.822 180.821C360.08 181.578 359.494 182.463 359.094 183.427C358.729 184.403 358.545 185.432 358.548 186.468Z" fill="#005893"/>
<path d="M393.277 181.975C393.277 181.192 392.823 180.757 391.824 180.757C391.218 180.757 390.491 181.366 389.643 182.584C388.847 183.79 388.263 185.113 387.917 186.501V186.588C387.943 187.439 388.064 188.285 388.281 189.112C388.489 189.702 388.611 190.317 388.644 190.939C388.644 191.722 387.554 192.506 385.464 193.376C385.174 193.483 384.867 193.542 384.556 193.55C384.262 193.544 383.977 193.453 383.738 193.289C383.505 193.116 383.344 192.869 383.284 192.593C383.024 191.775 382.901 190.923 382.92 190.069C382.92 189.025 382.92 187.98 383.011 187.023C383.102 186.065 383.102 185.195 383.193 184.412C383.284 183.629 383.284 182.932 383.375 182.236C383.443 181.746 383.473 181.251 383.466 180.757C383.466 179.973 383.102 179.538 382.285 179.538C381.467 179.538 380.558 180.409 379.559 182.149C378.712 183.408 378.184 184.838 378.015 186.327C378.001 187.295 378.123 188.261 378.378 189.199C378.586 189.789 378.709 190.404 378.741 191.026C378.741 191.809 377.651 192.593 375.562 193.463C375.271 193.57 374.964 193.629 374.653 193.637C374.36 193.631 374.075 193.54 373.835 193.376C373.603 193.203 373.442 192.956 373.381 192.68C373.126 191.742 373.004 190.776 373.018 189.808C372.943 187.334 373.095 184.859 373.472 182.41C373.854 180.147 374.72 177.984 376.016 176.057C376.178 175.787 376.394 175.55 376.652 175.361C376.93 175.193 377.238 175.075 377.56 175.013C378.378 175.013 379.196 175.622 379.832 176.927C380.037 177.22 380.19 177.544 380.286 177.885C380.729 177.212 381.358 176.669 382.103 176.318C382.831 175.945 383.639 175.736 384.465 175.709C385.536 175.697 386.573 176.069 387.372 176.753C387.751 177.068 388.06 177.453 388.281 177.885C388.504 178.316 388.598 178.798 388.553 179.277V179.712C389.167 178.845 390.015 178.153 391.006 177.711C392.002 177.265 393.086 177.028 394.186 177.014C394.737 176.986 395.29 177.045 395.821 177.188C396.351 177.363 396.844 177.628 397.275 177.972C397.627 178.29 397.905 178.675 398.092 179.103C398.278 179.545 398.371 180.019 398.365 180.496C398.365 181.366 398.274 182.323 398.183 183.193C398.092 184.064 397.82 184.76 397.638 185.456C397.456 186.153 397.275 186.762 397.093 187.284C396.988 187.712 396.927 188.15 396.911 188.589C396.911 188.85 397.002 189.025 397.184 189.025C397.703 188.936 398.18 188.692 398.546 188.328C399.092 187.893 399.637 187.371 400.182 186.849L401.726 185.369C402.18 184.934 402.544 184.673 402.726 184.673C403.089 184.673 403.271 185.108 403.271 185.891C403.271 187.545 402.362 189.199 400.636 190.852C399.155 192.327 397.138 193.199 395.003 193.289C393.186 193.289 392.278 191.722 392.278 188.589C392.295 187.474 392.447 186.364 392.732 185.282C393.033 184.201 393.215 183.093 393.277 181.975Z" fill="#005893"/>
<path d="M413.703 189.757C412.883 190.82 411.787 191.659 410.524 192.192C409.282 192.776 407.913 193.074 406.528 193.061C403.712 193.061 401.714 192.366 400.261 190.974C399.581 190.304 399.055 189.504 398.717 188.627C398.34 187.746 398.185 186.793 398.263 185.845C398.168 183.125 399.177 180.476 401.078 178.454C401.99 177.429 403.141 176.625 404.439 176.107C405.734 175.589 407.123 175.323 408.526 175.324C409.669 175.321 410.804 175.497 411.887 175.846C413.34 176.454 414.067 176.976 414.067 177.498C414.067 178.019 413.068 178.106 410.979 178.106C410.013 178.103 409.057 178.28 408.163 178.628C407.258 178.964 406.449 179.5 405.801 180.193C405.095 180.86 404.538 181.659 404.167 182.541C403.848 183.464 403.754 184.446 403.894 185.41C403.892 186.392 404.245 187.344 404.893 188.105C405.255 188.471 405.687 188.766 406.165 188.975C406.658 189.153 407.182 189.241 407.709 189.236C408.756 189.274 409.794 189.033 410.706 188.54C409.836 188.014 409.142 187.26 408.708 186.366C408.221 185.485 408 184.492 408.072 183.497C408.047 182.334 408.504 181.208 409.344 180.367C409.773 179.916 410.3 179.56 410.888 179.324C411.492 179.083 412.141 178.965 412.795 178.976C413.352 178.924 413.915 178.999 414.436 179.196C414.957 179.392 415.422 179.704 415.792 180.106C416.404 180.947 416.722 181.951 416.701 182.975C416.67 184.268 416.36 185.541 415.792 186.714H415.974C416.498 186.712 417.016 186.611 417.499 186.417C417.982 186.223 418.421 185.94 418.79 185.584L419.607 184.801L419.88 184.54C419.97 184.454 420.061 184.454 420.243 184.454C420.606 184.454 420.788 184.888 420.788 185.671C420.832 186.291 420.739 186.913 420.515 187.497C420.283 188.067 419.909 188.574 419.425 188.975C418.591 189.658 417.526 190.029 416.428 190.018C415.513 190.013 414.601 189.926 413.703 189.757ZM413.431 185.584C413.823 184.794 414.039 183.936 414.067 183.062C414.067 182.28 413.794 181.845 413.249 181.845C413.125 181.862 413.008 181.911 412.912 181.988C412.816 182.065 412.744 182.166 412.704 182.28C412.557 182.547 412.494 182.849 412.523 183.149C412.525 183.597 412.617 184.04 412.795 184.454C412.816 184.673 412.884 184.886 412.993 185.081C413.102 185.275 413.251 185.446 413.431 185.584Z" fill="#005893"/>
<path d="M499.146 193.19C499.903 193.19 500.642 192.974 501.272 192.57C501.901 192.167 502.391 191.593 502.681 190.921C502.97 190.25 503.045 189.511 502.898 188.799C502.751 188.086 502.386 187.431 501.852 186.917C501.316 186.403 500.635 186.053 499.893 185.912C499.151 185.77 498.381 185.843 497.683 186.121C496.984 186.399 496.386 186.87 495.966 187.474C495.545 188.078 495.321 188.789 495.321 189.515C495.358 190.479 495.773 191.393 496.482 192.075C497.192 192.757 498.143 193.155 499.146 193.19Z" fill="#C1E9FB"/>
<path d="M460.259 184.96C460.713 184.96 460.895 185.482 460.895 186.613C460.817 187.393 460.536 188.141 460.077 188.789C459.507 189.669 458.802 190.462 457.985 191.139C457.139 191.848 456.189 192.435 455.165 192.88C454.265 193.324 453.269 193.562 452.255 193.576C451.493 193.58 450.743 193.401 450.072 193.054C449.512 192.722 449.069 192.237 448.799 191.662C448.344 190.878 448.071 189.312 447.708 186.961C447.531 185.352 447.257 183.754 446.889 182.174C446.246 182.078 445.646 181.806 445.161 181.391C444.909 181.256 444.716 181.04 444.615 180.782C444.512 180.531 444.45 180.267 444.433 179.998C444.395 179.752 444.461 179.502 444.615 179.302L445.161 178.78C445.731 178.531 446.354 178.412 446.98 178.432C447.613 178.441 448.235 178.59 448.799 178.867C449.493 178.336 450.079 177.686 450.527 176.952C451.007 176.005 451.226 174.956 451.164 173.905C451.169 173.343 451.077 172.785 450.891 172.252C450.665 171.724 450.324 171.249 449.89 170.859C448.782 170.023 447.386 169.619 445.979 169.727C444.631 169.695 443.284 169.842 441.978 170.163C441.169 170.4 440.379 170.691 439.613 171.033C438.976 171.381 438.34 171.642 437.794 171.903C437.344 172.139 436.849 172.287 436.339 172.339C435.884 172.339 435.702 172.165 435.702 171.903C435.813 171.386 436.064 170.906 436.43 170.511C437.013 169.792 437.72 169.173 438.522 168.683C440.756 167.276 443.345 166.469 446.016 166.346C448.688 166.224 451.346 166.79 453.71 167.987C454.767 168.534 455.647 169.347 456.257 170.337C456.887 171.329 457.174 172.487 457.075 173.644C457.161 175.499 456.547 177.321 455.348 178.78C454.238 180.128 452.758 181.153 451.073 181.739C451.471 182.577 451.775 183.452 451.982 184.35C452.255 185.308 452.437 186.091 452.71 186.874C452.887 187.546 453.163 188.191 453.529 188.789C453.652 188.984 453.805 189.16 453.983 189.312C454.165 189.486 454.347 189.486 454.62 189.573C455.188 189.468 455.719 189.228 456.166 188.876C456.806 188.424 457.387 187.898 457.894 187.31C458.44 186.787 458.985 186.265 459.44 185.743C459.712 185.134 460.077 184.96 460.259 184.96ZM443.888 171.903C444.251 171.903 444.342 172.339 444.342 173.122C444.327 173.908 444.266 174.693 444.161 175.472C443.988 176.802 443.684 178.114 443.251 179.389C442.66 181.272 442.204 183.191 441.887 185.134V190.443C441.952 190.99 441.824 191.541 441.523 192.01C441.226 192.47 440.821 192.857 440.341 193.141L438.976 193.751C438.517 193.937 438.02 194.026 437.521 194.012C436.43 194.012 435.975 192.88 435.975 190.53C436.092 187.534 436.675 184.571 437.703 181.739C438.506 178.902 439.699 176.181 441.25 173.644C441.539 173.207 441.909 172.823 442.342 172.513C442.543 172.317 442.784 172.161 443.049 172.057C443.315 171.952 443.6 171.9 443.888 171.903Z" fill="#C1E9FB"/>
<path d="M492.774 184.969C493.228 184.969 493.41 185.491 493.41 186.622C493.332 187.4 493.05 188.148 492.592 188.795C492.023 189.674 491.317 190.466 490.501 191.143C489.655 191.852 488.706 192.437 487.683 192.882C486.653 193.328 485.539 193.565 484.409 193.578C483.911 193.584 483.417 193.495 482.955 193.317C482.495 193.162 482.087 192.892 481.773 192.534C481.131 191.873 480.773 191.003 480.773 190.1C480.784 189.099 480.937 188.104 481.227 187.143C481.591 186.013 481.864 184.882 482.227 183.665C483.009 181.472 483.497 179.193 483.682 176.882C483.666 176.443 483.606 176.006 483.5 175.578C483.429 175.423 483.299 175.299 483.136 175.23C482.965 175.159 482.778 175.13 482.591 175.143C481.628 175.259 480.748 175.726 480.136 176.448C479.216 177.477 478.395 178.582 477.682 179.752C476.053 182.524 475.12 185.62 474.955 188.795L475.136 189.839C475.212 190.182 475.242 190.532 475.227 190.882C475.235 191.314 475.109 191.737 474.864 192.1C474.671 192.474 474.391 192.802 474.046 193.056C473.319 193.673 472.38 194.014 471.409 194.013C471.14 194.019 470.88 193.926 470.682 193.752C470.48 193.587 470.325 193.378 470.227 193.143C469.938 192.512 469.783 191.832 469.773 191.143C469.859 190.058 470.041 188.981 470.318 187.926C470.682 186.535 471.136 185.056 471.591 183.578C472.773 179.491 473.409 176.448 473.409 174.448C473.423 173.623 473.3 172.801 473.046 172.013C472.912 171.724 472.691 171.482 472.409 171.317C472.28 171.228 472.131 171.166 471.974 171.136C471.817 171.106 471.655 171.108 471.5 171.143C470.136 171.143 468.773 172.1 467.5 173.926C466.227 175.752 464.955 178.622 463.955 182.535C463.682 183.578 463.5 184.448 463.318 185.143V185.839C463.7 187.264 463.943 188.719 464.046 190.187C464.112 190.746 464 191.311 463.723 191.807C463.448 192.304 463.021 192.709 462.499 192.969L461.135 193.578C460.674 193.756 460.179 193.844 459.681 193.839C458.408 193.839 457.772 192.708 457.772 190.361C457.772 188.013 458.408 183.578 459.681 176.882C460.135 174.448 460.408 173.143 460.408 172.796C460.408 170.883 459.863 169.839 458.863 169.839C458.512 169.844 458.168 169.933 457.863 170.1C457.575 170.323 457.272 170.526 456.954 170.709C456.629 170.913 456.325 171.146 456.045 171.404C455.745 171.582 455.397 171.673 455.045 171.665C454.681 171.665 454.499 171.317 454.499 170.709C454.497 170.035 454.685 169.374 455.045 168.796C455.377 168.234 455.844 167.757 456.408 167.404C457.701 166.508 459.268 166.049 460.863 166.1C463.135 166.1 464.5 167.143 464.864 169.143C464.973 169.776 465.034 170.415 465.046 171.056C466.864 167.752 469.227 166.013 472.136 166.013C475.227 166.013 477.046 167.404 477.409 170.274C477.56 171.135 477.622 172.009 477.591 172.882V173.143C479.227 170.969 481.136 169.926 483.409 169.926C486.592 169.926 488.137 171.752 488.137 175.404C488.139 177.287 487.864 179.16 487.319 180.969C486.774 183.143 486.41 184.622 486.228 185.578C486.011 186.285 485.889 187.016 485.865 187.752C485.865 188.708 486.228 189.143 486.865 189.143C487.501 189.143 489.137 187.926 491.683 185.404C492.021 185.207 492.388 185.06 492.774 184.969Z" fill="#C1E9FB"/>
<path d="M439.055 180.124C439.691 180.124 440.055 180.733 440.055 181.865C440.055 183.153 439.777 184.427 439.236 185.606C438.617 187.01 437.757 188.304 436.69 189.435C435.495 190.739 434.042 191.804 432.416 192.568C430.541 193.511 428.439 193.962 426.323 193.873C424.04 193.878 421.836 193.072 420.138 191.611C418.411 190.132 417.501 187.956 417.501 185.084C417.472 182.453 417.902 179.835 418.774 177.34C419.497 175.173 420.604 173.142 422.048 171.335C423.327 169.846 424.866 168.58 426.595 167.593C428.094 166.69 429.827 166.208 431.597 166.201C434.326 166.201 435.69 167.332 435.69 169.682C435.775 170.8 435.522 171.917 434.962 172.901C434.417 173.685 433.962 174.12 433.416 174.12C433.075 174.112 432.738 174.053 432.416 173.946C432.091 173.816 431.809 173.606 431.597 173.337C431.386 173.068 431.103 172.857 430.779 172.727C430.479 172.549 430.131 172.459 429.778 172.466C429.142 172.466 427.414 172.379 425.959 174.642C425.391 175.41 424.961 176.263 424.686 177.166C423.853 179.28 423.421 181.52 423.412 183.779C423.52 184.582 423.793 185.356 424.214 186.058C424.635 186.76 425.198 187.375 425.868 187.869C426.669 188.389 427.631 188.635 428.596 188.565C429.458 188.488 430.296 188.248 431.06 187.86C431.825 187.471 432.502 186.942 433.052 186.303L435.508 183.692C436.326 182.822 437.054 181.952 437.69 181.168C438.236 180.559 438.691 180.124 439.055 180.124Z" fill="#C1E9FB"/>
</g>
<defs>
<linearGradient id="paint0_linear_1_2471" x1="271.48" y1="0.0146484" x2="271.48" y2="270.015" gradientUnits="userSpaceOnUse">
<stop stop-color="#00FFB7"/>
<stop offset="1" stop-color="#D795FF"/>
</linearGradient>
<linearGradient id="paint1_linear_1_2471" x1="274.101" y1="66.4229" x2="274.101" y2="216.714" gradientUnits="userSpaceOnUse">
<stop stop-color="#EB00FF"/>
<stop offset="1" stop-color="#D3FFFC" stop-opacity="0"/>
</linearGradient>
</defs>
</svg>
